<svg height="512pt" viewBox="0 -21 512 512" width="512pt" xmlns="http://www.w3.org/2000/svg"><path d="m256 462.011719h-32.316406l-20.195313-6.5625h-185.816406c-5.574219 0-10.097656-4.519531-10.097656-10.097657v-11.613281c0-5.578125 4.519531-10.101562 10.097656-10.101562h185.816406l20.199219 6.0625h32.3125zm0 0" fill="#8db0ff"/><path d="m244.890625 429.699219v15.144531c0 3.347656-2.710937 6.0625-6.058594 6.0625h-7.320312c-1.167969 0-2.332031-.203125-3.429688-.601562l-14.851562-5.363282c-1.101563-.398437-2.261719-.601562-3.429688-.601562h-202.226562v1.011718c0 5.578126 4.519531 10.097657 10.097656 10.097657h185.816406l20.195313 6.566406h32.316406v-32.316406zm0 0" fill="#669af7"/><path d="m256 462.011719h32.316406l20.195313-6.5625h185.816406c5.578125 0 10.097656-4.519531 10.097656-10.097657v-11.613281c0-5.578125-4.519531-10.101562-10.097656-10.101562h-185.816406l-20.195313 6.0625h-32.316406zm0 0" fill="#8db0ff"/><path d="m494.328125 423.636719h-1.011719v14.644531c0 3.347656-2.710937 6.058594-6.058594 6.058594h-178.746093l-20.195313 6.566406h-32.316406v11.105469h32.316406l20.195313-6.5625h185.816406c5.578125 0 10.097656-4.523438 10.097656-10.101563v-11.609375c0-5.578125-4.519531-10.101562-10.097656-10.101562zm0 0" fill="#669af7"/><path d="m256 429.699219-11.894531-22.753907c-6.964844-13.328124-20.757813-21.683593-35.796875-21.683593h-157.65625c-7.804688 0-14.914063 4.5-18.253906 11.554687l-12.707032 26.820313h183.796875l20.195313 6.0625zm0 0" fill="#ddf5ff"/><path d="m244.105469 406.945312c-5.820313-11.140624-16.417969-18.78125-28.519531-21 2.457031 2.628907 4.589843 5.601563 6.304687 8.882813l9.085937 17.382813c1.277344 2.441406-.496093 5.367187-3.25 5.367187l-17.359374-5.207031c-1.882813-.5625-3.839844-.851563-5.804688-.851563h-179.128906l-5.742188 12.117188h183.796875l20.199219 6.0625h32.3125zm0 0" fill="#c1e9f4"/><path d="m256 429.699219 11.894531-22.753907c6.964844-13.328124 20.757813-21.683593 35.796875-21.683593h157.65625c7.804688 0 14.914063 4.5 18.253906 11.554687l12.707032 26.820313h-183.796875l-20.195313 6.0625zm0 0" fill="#ddf5ff"/><path d="m479.601562 396.816406c-3.339843-7.054687-10.449218-11.554687-18.253906-11.554687h-2.683594l8.339844 17.605469c1.902344 4.019531-1.03125 8.652343-5.476562 8.652343h-158.0625l-20.199219 6.058594h-20.929687l-6.335938 12.121094h32.316406l20.195313-6.0625h183.796875zm0 0" fill="#c1e9f4"/><path d="m307.503906 158.8125h-103.007812c-5.574219 0-10.097656-4.519531-10.097656-10.097656v-20.199219c0-5.574219 4.519531-10.097656 10.097656-10.097656h103.007812c5.574219 0 10.097656 4.519531 10.097656 10.097656v20.199219c0 5.578125-4.523437 10.097656-10.097656 10.097656zm0 0" fill="#ddf5ff"/><path d="m307.503906 118.417969h-18.179687c5.578125 0 10.101562 4.523437 10.101562 10.097656v20.199219c0 5.578125-4.523437 10.097656-10.101562 10.097656h18.179687c5.574219 0 10.097656-4.519531 10.097656-10.097656v-20.199219c0-5.574219-4.523437-10.097656-10.097656-10.097656zm0 0" fill="#c1e9f4"/><path d="m214.597656 158.8125h82.808594v149.703125c0 22.867187-18.539062 41.402344-41.40625 41.402344s-41.402344-18.535157-41.402344-41.402344zm0 0" fill="#ddf5ff"/><path d="m214.597656 158.8125v17.671875h54.53125c5.578125 0 10.097656 4.523437 10.097656 10.101563v139.601562c0 7.019531-1.753906 13.632812-4.835937 19.425781 13.636719-6.777343 23.015625-20.839843 23.015625-37.097656v-149.703125zm0 0" fill="#c1e9f4"/><path d="m214.597656 227.726562v80.789063c0 22.867187 18.535156 41.402344 41.402344 41.402344s41.402344-18.535157 41.402344-41.402344v-80.789063zm0 0" fill="#ffd664"/><path d="m274.390625 345.609375c13.636719-6.773437 23.011719-20.835937 23.011719-37.097656v-80.789063h-18.175782v98.464844c0 7.019531-1.753906 13.628906-4.835937 19.421875zm0 0" fill="#f9c646"/><path d="m283.886719 79.867188c11.976562 11.683593 32.5 10.070312 49.1875-7.039063 19.472656-19.964844 21.324219-65.253906 21.324219-65.253906s-45.230469 2.984375-64.699219 22.945312c-16.6875 17.109375-17.792969 37.664063-5.8125 49.347657zm0 0" fill="#7ae57d"/><path d="m335.660156 56.667969c-16.6875 17.109375-37.210937 18.722656-49.1875 7.042969-4.597656-4.488282-7.257812-10.28125-7.859375-16.683594-5.027343 12.472656-3 24.773437 5.273438 32.839844 11.976562 11.683593 32.5 10.070312 49.1875-7.039063 14.070312-14.429687 18.941406-42.082031 20.558593-56.3125-2.894531 13.828125-8.226562 30.164063-17.972656 40.152344zm0 0" fill="#66d166"/><path d="m228.113281 79.867188c-11.976562 11.683593-32.5 10.070312-49.1875-7.039063-19.472656-19.964844-21.324219-65.253906-21.324219-65.253906s45.230469 2.984375 64.699219 22.945312c16.6875 17.109375 17.792969 37.664063 5.8125 49.347657zm0 0" fill="#7ae57d"/><path d="m222.304688 30.519531c-9.972657-10.222656-26.695313-15.988281-40.640626-19.1875 7.941407 3.238281 15.425782 7.496094 20.882813 13.09375 16.6875 17.109375 17.789063 37.664063 5.8125 49.347657-5.097656 4.972656-11.746094 7.527343-18.984375 7.511718 14.160156 8.75 29.175781 7.914063 38.738281-1.417968 11.980469-11.683594 10.875-32.238282-5.808593-49.347657zm0 0" fill="#66d166"/><path d="m497.222656 416.324219-10.777344-22.75c-4.566406-9.648438-14.417968-15.882813-25.097656-15.882813h-18.523437c-4.183594 0-7.574219 3.390625-7.574219 7.570313 0 4.183593 3.390625 7.574219 7.574219 7.574219h18.523437c4.851563 0 9.332032 2.835937 11.410156 7.222656l7.582032 16.007812h-171.828125c-.734375 0-1.46875.105469-2.175781.316406l-19.132813 5.742188h-18.695313l6.097657-11.671875c5.679687-10.863281 16.824219-17.613281 29.085937-17.613281h103.789063c4.183593 0 7.574219-3.390625 7.574219-7.574219s-3.390626-7.574219-7.574219-7.574219h-103.789063c-17.917968 0-34.210937 9.863282-42.511718 25.746094l-5.179688 9.910156-5.179688-9.910156c-8.300781-15.882812-24.59375-25.746094-42.511718-25.746094h-103.789063c-4.179687 0-7.574219 3.390625-7.574219 7.570313 0 4.183593 3.394532 7.574219 7.574219 7.574219h103.789063c12.261718 0 23.40625 6.75 29.085937 17.617187l6.101563 11.671875h-18.699219l-19.132813-5.742188c-.703124-.210937-1.4375-.320312-2.175781-.320312h-171.828125l7.582032-16.007812c2.078124-4.382813 6.558593-7.21875 11.410156-7.21875h18.523437c4.183594 0 7.574219-3.390626 7.574219-7.574219 0-4.179688-3.390625-7.570313-7.574219-7.570313h-18.523437c-10.679688 0-20.53125 6.234375-25.097656 15.882813l-10.777344 22.75c-8.371094 1.386719-14.777344 8.65625-14.777344 17.414062v11.609375c0 9.746094 7.929688 17.675782 17.671875 17.675782h184.613281l19.058594 6.191406c.753906.246094 1.546875.371094 2.339844.371094h64.632812c.792969 0 1.585938-.125 2.339844-.371094l19.058594-6.191406h184.613281c9.742187 0 17.671875-7.929688 17.671875-17.675782v-11.609375c0-8.757812-6.40625-16.027343-14.777344-17.414062zm-291.394531 31.921875c-.757813-.246094-1.546875-.371094-2.339844-.371094h-185.816406c-1.390625 0-2.523437-1.132812-2.523437-2.527344v-11.609375c0-1.394531 1.132812-2.527343 2.523437-2.527343h184.703125l19.132812 5.742187c.707032.210937 1.441407.320313 2.175782.320313h24.742187v17.167968h-23.539062zm291.023437-2.894532c0 1.390626-1.132812 2.523438-2.523437 2.523438h-185.816406c-.792969 0-1.582031.125-2.339844.371094l-19.054687 6.195312h-23.542969v-17.167968h24.742187c.738282 0 1.46875-.109376 2.175782-.320313l19.132812-5.742187h184.703125c1.394531 0 2.527344 1.132812 2.527344 2.527343v11.613281zm0 0"/><path d="m209.191406 94.964844c6.425782 0 12.542969-1.675782 17.832032-4.796875 3.566406 4.453125 8.734374 11.660156 13.09375 20.675781h-35.621094c-9.742188 0-17.671875 7.929688-17.671875 17.671875v20.199219c0 9.746094 7.929687 17.671875 17.671875 17.671875h2.527344v13.253906c0 4.183594 3.390624 7.574219 7.574218 7.574219 4.179688 0 7.574219-3.390625 7.574219-7.574219v-13.253906h26.253906v53.765625h-26.253906v-4.542969c0-4.183594-3.394531-7.574219-7.574219-7.574219-4.183594 0-7.574218 3.390625-7.574218 7.574219v92.90625c0 27.007813 21.96875 48.976563 48.976562 48.976563s48.976562-21.96875 48.976562-48.976563v-142.128906h2.527344c9.742188 0 17.671875-7.929688 17.671875-17.671875v-20.199219c0-9.742187-7.929687-17.671875-17.671875-17.671875h-35.621094c4.363282-9.015625 9.53125-16.226562 13.09375-20.675781 5.289063 3.121093 11.40625 4.792969 17.832032 4.792969 12.414062 0 25.089844-5.980469 35.6875-16.847657 21.25-21.789062 23.390625-68.261719 23.46875-70.230469.089844-2.144531-.738282-4.230468-2.277344-5.730468s-3.636719-2.273438-5.789062-2.136719c-1.964844.128906-48.371094 3.425781-69.625 25.214844-9.230469 9.464843-14.683594 20.269531-15.769532 31.25-.847656 8.5625 1.082032 16.574219 5.460938 23.195312-4.761719 5.792969-12.304688 16.160157-17.964844 29.507813-5.660156-13.347656-13.203125-23.714844-17.964844-29.507813 4.382813-6.621093 6.308594-14.632812 5.460938-23.195312-1.085938-10.980469-6.539063-21.785157-15.769532-31.25-21.253906-21.789063-67.660156-25.082031-69.625-25.214844-2.144531-.136719-4.25.636719-5.789062 2.136719s-2.367188 3.585937-2.277344 5.730468c.078125 1.96875 2.21875 48.441407 23.46875 70.234376 10.597656 10.863281 23.273438 16.847656 35.6875 16.847656zm46.808594 247.378906c-18.652344 0-33.828125-15.175781-33.828125-33.828125v-73.214844h67.660156v73.214844c-.003906 18.652344-15.179687 33.828125-33.832031 33.828125zm33.828125-122.191406h-26.253906v-53.765625h26.253906zm20.199219-91.636719v20.199219c0 1.390625-1.132813 2.523437-2.523438 2.523437h-103.007812c-1.394532 0-2.523438-1.132812-2.523438-2.523437v-20.199219c0-1.390625 1.128906-2.523437 2.523438-2.523437h46.925781.019531.015625 9.082031.019532.019531 46.925781c1.390625 0 2.523438 1.132812 2.523438 2.523437zm-26.449219-70.542969c.734375-7.414062 4.832031-15.285156 11.539063-22.164062 12.335937-12.644532 37.527343-17.773438 50.933593-19.671875-1.566406 13.449219-6.066406 38.753906-18.398437 51.402343-7.722656 7.917969-16.546875 12.277344-24.84375 12.277344-5.320313 0-10.035156-1.859375-13.632813-5.371094-4.3125-4.203124-6.246093-9.898437-5.597656-16.472656zm-66.695313-22.164062c6.707032 6.878906 10.804688 14.75 11.539063 22.164062.648437 6.574219-1.285156 12.269532-5.597656 16.472656-3.601563 3.515626-8.3125 5.371094-13.632813 5.371094-8.296875 0-17.121094-4.359375-24.84375-12.277344-12.34375-12.660156-16.839844-38.003906-18.402344-51.441406 15.082032 2.148438 39.355469 7.839844 50.9375 19.710938zm0 0"/><path d="m253.980469 265.089844c0 5.578125-4.519531 10.101562-10.097657 10.101562-5.578124 0-10.101562-4.523437-10.101562-10.101562s4.523438-10.097656 10.101562-10.097656c5.578126 0 10.097657 4.519531 10.097657 10.097656zm0 0"/><path d="m274.175781 285.289062c0 3.902344-3.164062 7.066407-7.066406 7.066407-3.90625 0-7.070313-3.164063-7.070313-7.066407 0-3.90625 3.164063-7.070312 7.070313-7.070312 3.902344 0 7.066406 3.164062 7.066406 7.070312zm0 0"/><path d="m253.980469 310.535156c0 2.785156-2.261719 5.046875-5.050781 5.046875-2.789063 0-5.046876-2.261719-5.046876-5.046875 0-2.789062 2.257813-5.050781 5.046876-5.050781 2.789062 0 5.050781 2.261719 5.050781 5.050781zm0 0"/></svg>