<svg height="511pt" viewBox="0 -28 511.99967 511" width="511pt" xmlns="http://www.w3.org/2000/svg"><path d="m463.339844 8.074219s41.085937 43.761719 41.085937 78.59375c0 0 .148438 27.242187-17.863281 35.726562h-46.445312c-18.007813-8.484375-17.859376-35.726562-17.859376-35.726562 0-34.832031 41.082032-78.59375 41.082032-78.59375zm0 0" fill="#ffd664"/><path d="m463.339844 8.074219s-3.941406 4.199219-9.378906 11.023437c12.128906 15.222656 31.707031 43.523438 31.707031 67.570313 0 0 .148437 27.238281-17.863281 35.726562h18.757812c18.011719-8.488281 17.863281-35.726562 17.863281-35.726562-.003906-34.832031-41.085937-78.59375-41.085937-78.59375zm0 0" fill="#f9c646"/><path d="m486.5625 122.394531s17.859375 48.527344 17.859375 105.386719c0 124.628906-28.578125 219.707031-28.578125 219.707031h-25.007812s-28.578126-95.078125-28.578126-219.707031c0-56.859375 17.859376-105.386719 17.859376-105.386719zm0 0" fill="#636363"/><path d="m486.5625 122.394531h-19.652344s17.863282 48.527344 17.863282 105.386719c0 124.628906-28.578126 219.707031-28.578126 219.707031h19.648438s28.578125-95.078125 28.578125-219.707031c0-56.859375-17.859375-105.386719-17.859375-105.386719zm0 0" fill="#494949"/><path d="m463.339844 8.074219s-16.539063 17.625-28.632813 39.402343c7.570313.863282 13.449219 7.28125 13.449219 15.078126v15.183593c0 8.382813 6.796875 15.183594 15.183594 15.183594 8.386718 0 15.183594-6.800781 15.183594-15.183594v-15.183593c0-7.796876 5.878906-14.214844 13.449218-15.078126-12.089844-21.777343-28.632812-39.402343-28.632812-39.402343zm0 0" fill="#7ae57d"/><path d="m478.953125 59.019531c1.464844-6.128906 6.632813-10.816406 13.019531-11.542969-12.09375-21.777343-28.632812-39.402343-28.632812-39.402343s-3.941406 4.203125-9.375 11.027343c7.625 9.570313 18.191406 24.3125 24.988281 39.917969zm0 0" fill="#66d166"/><path d="m7.574219 8.074219h361.75v439.414062h-361.75zm0 0" fill="#ff933b"/><path d="m350.929688 8.074219v400.582031c0 11.289062-9.148438 20.4375-20.4375 20.4375h-322.917969v18.394531h361.75v-439.414062zm0 0" fill="#f27d27"/><path d="m46.40625 46.90625h284.085938v361.75h-284.085938zm0 0" fill="#8db0ff"/><path d="m309.03125 46.90625v338.246094h-262.625v23.503906h284.085938v-361.75zm0 0" fill="#669af7"/><path d="m46.40625 323.839844 87.371094-87.371094 37.300781 37.296875 86.859375-86.859375 72.554688 72.554688v149.195312h-284.085938zm0 0" fill="#7ae57d"/><path d="m288.59375 385.152344h-242.1875v23.503906h284.085938v-149.195312l-21.460938-21.460938v126.714844c0 11.289062-9.148438 20.4375-20.4375 20.4375zm0 0" fill="#66d166"/><path d="m171.078125 133.765625c0 18.0625-14.640625 32.703125-32.699219 32.703125-18.0625 0-32.703125-14.640625-32.703125-32.703125 0-18.058594 14.640625-32.699219 32.703125-32.699219 18.058594 0 32.699219 14.640625 32.699219 32.699219zm0 0" fill="#ffd664"/><path d="m489.046875 28.417969c-3.15625-4.617188-14.863281-19.550781-17.433594-22.476563-2.175781-2.476562-4.289062-5.246094-7.882812-5.429687-3.800781-.199219-6.050781 2.472656-8.320313 5.042969-2.363281 2.667968-20.367187 26.128906-25.960937 35.84375-.476563.832031-.960938 1.664062-1.414063 2.511718-7.445312 13.46875-13.351562 28.601563-13.351562 42.71875-.007813 1.179688.070312 26.429688 16.335937 39.015625-4.769531 14.78125-16.335937 55.453125-16.335937 102.136719 0 124.304688 28.609375 220.929688 28.898437 221.890625.964844 3.199219 3.910157 5.390625 7.253907 5.390625h25.007812c3.34375 0 6.292969-2.191406 7.253906-5.390625.289063-.964844 28.898438-97.585937 28.898438-221.890625 0-46.683594-11.566406-87.355469-16.335938-102.136719 16.265625-12.585937 16.34375-37.832031 16.335938-38.976562 0-14.109375-5.890625-29.230469-13.316406-42.691407-2.808594-5.386718-6.207032-10.546874-9.632813-15.558593zm-25.707031-8.820313c6.378906 7.640625 12.324218 15.671875 17.605468 24.109375-6.070312 4.109375-9.996093 11.058594-9.996093 18.847657v15.183593c0 4.195313-3.414063 7.609375-7.609375 7.609375-4.195313 0-7.609375-3.414062-7.609375-7.609375v-15.183593c0-7.789063-3.925781-14.738282-9.996094-18.847657 5.28125-8.4375 11.226563-16.472656 17.605469-24.109375zm33.507812 208.183594c0 105.40625-20.894531 190.394531-26.75 212.132812h-13.515625c-5.855469-21.738281-26.753906-106.726562-26.753906-212.132812 0-44.492188 11.378906-84.234375 15.730469-97.8125h35.5625c4.359375 13.558594 15.726562 53.226562 15.726562 97.8125zm-12.152344-112.960938h-42.710937c-12.011719-7.117187-12.15625-27.914062-12.15625-28.152343 0-9.425781 3.492187-19.765625 8.375-29.640625 1.472656 1.390625 2.378906 3.359375 2.378906 5.527344v15.183593c0 12.546875 10.207031 22.753907 22.757813 22.753907 12.546875 0 22.757812-10.207032 22.757812-22.753907v-15.183593c0-2.164063.90625-4.132813 2.375-5.523438 4.886719 9.875 8.375 20.226562 8.375 29.660156 0 .214844-.140625 21.011719-12.152344 28.128906zm0 0"/><path d="m511.996094 86.667969c.007812 1.144531 0-14.109375 0 0zm0 0"/><path d="m369.324219.5h-361.75c-4.183594 0-7.574219 3.390625-7.574219 7.574219v90.507812c0 4.183594 3.390625 7.574219 7.574219 7.574219 4.183593 0 7.574219-3.390625 7.574219-7.574219v-82.933593h346.605468v424.265624h-346.605468v-306.175781c0-4.183593-3.390626-7.574219-7.574219-7.574219-4.183594 0-7.574219 3.390626-7.574219 7.574219v313.75c0 4.183594 3.390625 7.574219 7.574219 7.574219h361.75c4.183593 0 7.574219-3.390625 7.574219-7.574219v-439.414062c0-4.183594-3.390626-7.574219-7.574219-7.574219zm0 0"/><path d="m330.492188 116.066406c4.183593 0 7.574218-3.390625 7.574218-7.574218v-61.585938c0-4.183594-3.390625-7.574219-7.574218-7.574219h-284.085938c-4.183594 0-7.574219 3.390625-7.574219 7.574219v361.75c0 4.183594 3.390625 7.574219 7.574219 7.574219h284.085938c4.183593 0 7.574218-3.390625 7.574218-7.574219v-264.820312c0-4.183594-3.390625-7.574219-7.574218-7.574219-4.183594 0-7.574219 3.390625-7.574219 7.574219v97.339843l-59.625-59.625c-1.421875-1.421875-3.347657-2.21875-5.355469-2.21875s-3.933594.796875-5.355469 2.21875l-81.503906 81.503907-31.945313-31.941407c-2.957031-2.957031-7.75-2.960937-10.710937 0l-74.441406 74.441407v-251.074219h268.9375v54.011719c0 4.183593 3.390625 7.574218 7.574219 7.574218zm-196.714844 131.113282 31.945312 31.941406c1.417969 1.421875 3.34375 2.21875 5.355469 2.21875 2.007813 0 3.933594-.796875 5.355469-2.21875l81.503906-81.503906 64.980469 64.980468v138.488282h-268.9375v-74.109376zm0 0"/><path d="m98.101562 133.769531c0 22.207031 18.066407 40.273438 40.277344 40.273438 22.207032 0 40.273438-18.066407 40.273438-40.273438 0-22.210937-18.066406-40.277343-40.273438-40.277343-22.210937 0-40.277344 18.066406-40.277344 40.277343zm65.402344 0c0 13.851563-11.273437 25.125-25.125 25.125-13.855468 0-25.128906-11.273437-25.128906-25.125 0-13.855469 11.273438-25.128906 25.128906-25.128906 13.851563 0 25.125 11.273437 25.125 25.128906zm0 0"/></svg>