<svg height="512pt" viewBox="0 -30 512 512" width="512pt" xmlns="http://www.w3.org/2000/svg"><path d="m7.574219 7.574219h113.105469v436.261719h-113.105469zm0 0" fill="#8db0ff"/><path d="m105.53125 7.574219v410.003906c0 5.578125-4.519531 10.097656-10.097656 10.097656h-87.859375v16.160157h113.105469v-436.261719zm0 0" fill="#669af7"/><path d="m39.890625 39.890625h48.472656v371.628906h-48.472656zm0 0" fill="#ffd664"/><path d="m74.226562 39.890625v346.382813c0 5.574218-4.523437 10.097656-10.101562 10.097656h-24.234375v15.148437h48.472656v-371.628906zm0 0" fill="#f9c646"/><path d="m120.679688 118.660156h92.90625v325.175782h-92.90625zm0 0" fill="#ff6969"/><path d="m197.429688 118.660156v298.917969c0 5.578125-4.523438 10.097656-10.101563 10.097656h-66.648437v16.160157h92.90625v-325.175782zm0 0" fill="#ea4747"/><path d="m120.679688 363.046875h92.90625v36.351563h-92.90625zm0 0" fill="#ffd664"/><path d="m197.429688 363.046875h16.15625v36.351563h-16.15625zm0 0" fill="#f9c646"/><path d="m120.679688 163.09375h92.90625v36.355469h-92.90625zm0 0" fill="#ffd664"/><path d="m197.429688 163.09375h16.15625v36.355469h-16.15625zm0 0" fill="#f9c646"/><path d="m268.117188 413.539062c-13.363282 0-24.234376-10.875-24.234376-24.238281s10.871094-24.238281 24.234376-24.238281h216.109374v48.472656h-216.109374zm0 0" fill="#ddf5ff"/><path d="m468.070312 365.066406v22.214844c0 5.578125-4.519531 10.101562-10.097656 10.101562h-212.703125c3.335938 9.402344 12.316407 16.15625 22.847657 16.15625h216.109374v-48.472656zm0 0" fill="#c1e9f4"/><path d="m268.117188 413.539062c-13.363282 0-24.234376-10.875-24.234376-24.238281s10.871094-24.238281 24.234376-24.238281h236.308593v-30.292969h-236.308593c-30.117188 0-54.53125 24.414063-54.53125 54.53125 0 30.117188 24.414062 54.535157 54.53125 54.535157h236.308593v-30.296876zm0 0" fill="#7ae57d"/><path d="m485.238281 334.769531h19.1875v30.296875h-19.1875zm0 0" fill="#66d166"/><path d="m485.238281 413.539062h19.1875v30.296876h-19.1875zm0 0" fill="#66d166"/><path d="m268.117188 389.300781v52.511719l24.238281-10.097656 23.226562 10.097656v-52.511719zm0 0" fill="#ffd664"/><path d="m364.230469 326.28125c-2.789063-3.1875-7.660157-3.1875-10.449219 0-6.75 7.71875-15.402344 8.488281-19.375 8.488281-38.953125 0-76.539062-58.316406-76.539062-122.324219 0-24.152343 13.667968-59.453124 57.402343-59.453124 0 0 19.671875-.222657 34.46875 13.335937 5.253907 4.8125 13.285157 4.8125 18.535157 0 14.796874-13.558594 34.46875-13.335937 34.46875-13.335937 43.734374 0 57.402343 35.300781 57.402343 59.453124 0 64.007813-37.585937 122.324219-76.535156 122.324219-3.976563 0-12.628906-.773437-19.378906-8.488281zm0 0" fill="#ff6969"/><path d="m402.742188 152.992188s-6.039063-.066407-13.9375 2.179687c29.980468 8.035156 39.90625 36.695313 39.90625 57.273437 0 54.308594-27.058594 104.511719-59.050782 118.480469 5.429688 3.410157 10.984375 3.84375 13.945313 3.84375 38.953125 0 76.539062-58.316406 76.539062-122.324219 0-24.152343-13.667969-59.453124-57.402343-59.453124zm0 0" fill="#ea4747"/><path d="m88.363281 419.09375c4.183594 0 7.574219-3.390625 7.574219-7.574219v-371.628906c0-4.183594-3.390625-7.574219-7.574219-7.574219h-48.472656c-4.183594 0-7.574219 3.390625-7.574219 7.574219v371.628906c0 4.179688 3.390625 7.574219 7.574219 7.574219zm-40.898437-371.628906h33.324218v356.480468h-33.324218zm0 0"/><path d="m504.425781 372.640625c4.183594 0 7.574219-3.394531 7.574219-7.574219v-30.296875c0-4.183593-3.390625-7.574219-7.574219-7.574219h-83.316406c26.925781-22.464843 46.609375-67.113281 46.609375-114.75 0-15.828124-5.035156-31.621093-13.816406-43.328124-8.109375-10.808594-23.566406-23.695313-51.074219-23.695313-.027344 0-.117187 0-.148437 0-2.234376 0-21.527344.402344-37.433594 13.519531-.898438-9.8125-1.148438-26.582031 4.644531-42.78125 1.410156-3.9375-.640625-8.273437-4.578125-9.679687-3.941406-1.410157-8.273438.640625-9.683594 4.578125-6.085937 17.011718-6.515625 34.121094-5.777344 45.640625-15.261718-10.925781-32.425781-11.277344-34.582031-11.277344-27.59375 0-43.050781 12.886719-51.160156 23.695313-8.78125 11.707031-13.816406 27.5-13.816406 43.332031 0 47.632812 19.683593 92.28125 46.609375 114.746093h-28.785156c-18.746094 0-35.5625 8.359376-46.960938 21.53125v-91.335937c0-4.183594-3.390625-7.574219-7.570312-7.574219-4.183594 0-7.574219 3.390625-7.574219 7.574219v98.082031h-77.761719v-148.449218h77.761719v15.316406c0 4.183594 3.390625 7.574218 7.574219 7.574218 4.179687 0 7.570312-3.390624 7.570312-7.574218v-103.679688c0-4.183594-3.390625-7.574218-7.570312-7.574218h-85.335938v-103.511719c0-4.183594-3.390625-7.574219-7.574219-7.574219h-113.101562c-4.183594 0-7.574219 3.390625-7.574219 7.574219v32.863281c0 4.179688 3.390625 7.574219 7.574219 7.574219 4.183593 0 7.574219-3.394531 7.574219-7.574219v-25.289062h97.957031v421.113281h-97.957031v-360.394531c0-4.183594-3.390626-7.574219-7.574219-7.574219-4.183594 0-7.574219 3.390625-7.574219 7.574219v367.96875c0 4.179687 3.390625 7.570312 7.574219 7.570312h206.011719c4.183593 0 7.574218-3.390625 7.574218-7.570312v-13.914063c.976563 1.121094 1.980469 2.226563 3.042969 3.289063 11.722656 11.734374 27.320313 18.195312 43.914063 18.195312h107.582031c4.183593 0 7.574219-3.390625 7.574219-7.570312 0-4.183594-3.390626-7.574219-7.574219-7.574219h-52.542969v-15.148438h173.695312v15.148438h-85.742187c-4.183594 0-7.574219 3.390625-7.574219 7.574219 0 4.179687 3.390625 7.570312 7.574219 7.570312h93.316406c4.183594 0 7.574219-3.390625 7.574219-7.570312v-30.296876c0-4.183593-3.390625-7.574218-7.574219-7.574218h-12.621093v-33.324219zm-216.492187-79.074219c-14.292969-22.625-22.492188-52.191406-22.492188-81.121094 0-5.308593 1.398438-51.878906 49.890625-51.878906.6875 0 17.050781.128906 29.292969 11.347656 3.9375 3.609376 9.046875 5.601563 14.382812 5.601563 5.335938 0 10.441407-1.992187 14.382813-5.601563 12.230469-11.207031 28.574219-11.347656 29.351563-11.347656 48.429687 0 49.828124 46.570313 49.828124 51.878906 0 28.929688-8.195312 58.496094-22.488281 81.121094-13.503906 21.371094-30.441406 33.628906-46.472656 33.628906-3.886719 0-9.410156-1.023437-13.675781-5.902343-2.769532-3.164063-6.75-4.976563-10.925782-4.976563-4.175781 0-8.160156 1.8125-10.925781 4.976563-4.265625 4.878906-9.792969 5.902343-13.675781 5.902343-16.035156 0-32.972656-12.257812-46.472656-33.628906zm-81.921875 77.050782v21.207031h-77.757813v-21.207031zm-77.757813-178.742188v-21.207031h77.757813v21.207031zm77.757813-65.640625v29.285156h-77.757813v-29.285156zm-77.757813 310.027344v-29.289063h77.757813v29.289063zm92.90625-46.960938c0-25.890625 21.066406-46.957031 46.957032-46.957031h228.734374v15.148438h-228.734374c-17.539063 0-31.808594 14.269531-31.808594 31.808593 0 14.929688 10.339844 27.484375 24.234375 30.894531v15.449219c-9.664063-1.558593-18.574219-6.082031-25.628907-13.144531-8.871093-8.859375-13.753906-20.652344-13.753906-33.199219zm86.847656 40.960938-12.632812-5.492188c-1.890625-.820312-4.03125-.835937-5.933594-.042969l-13.75 5.726563v-33.578125h32.316406zm168.648438-24.296875h-153.5v-16.664063c0-4.183593-3.390625-7.574219-7.574219-7.574219h-47.464843c-4.183594 0-7.574219 3.390626-7.574219 7.574219v14.824219c-5.386719-2.765625-9.089844-8.363281-9.089844-14.824219 0-9.1875 7.476563-16.664062 16.664063-16.664062h208.535156v33.328125zm0 0"/></svg>