<svg height="512pt" viewBox="0 -153 512 511" width="512pt" xmlns="http://www.w3.org/2000/svg"><path d="m461.003906 121.179688h20.195313c15.316406-5.722657 23.226562-26.929688 23.226562-51.59375v.179687-.179687.179687c0-24.664063-7.910156-45.871094-23.226562-51.59375h-20.195313zm0 0" fill="#7ae57d"/><path d="m487.511719 21.703125c5.167969 9.601563 7.8125 22.652344 7.824219 36.863281 0-.03125.003906-.058594.003906-.089844v.179688c0-.03125-.003906-.058594-.003906-.089844-.019532 24.625-7.925782 45.785156-23.226563 51.503906h-11.105469v11.105469h20.195313c15.296875-5.714843 23.207031-26.878906 23.226562-51.5-.015625-20.972656-5.761719-39.429687-16.914062-47.972656zm0 0" fill="#66d166"/><path d="m50.996094 121.179688h-20.195313c-15.316406-5.722657-23.226562-26.929688-23.226562-51.59375v.179687-.179687.179687c0-24.664063 7.910156-45.871094 23.226562-51.59375h20.195313zm0 0" fill="#7ae57d"/><path d="m23.730469 69.765625c0-.03125.003906-.0625.003906-.089844 0-.03125-.003906-.058593-.003906-.089843zm0 0" fill="#66d166"/><path d="m46.960938 18.171875c-15.300782 5.714844-23.207032 26.878906-23.226563 51.503906.019531 24.625 7.925781 45.789063 23.226563 51.503907h4.035156v-103.007813zm0 0" fill="#66d166"/><path d="m443.835938 132.285156c21.191406 0 28.273437-27.398437 28.273437-62.609375 0-35.207031-7.082031-61.601562-28.273437-61.601562h-375.671876c-21.191406 0-28.273437 26.394531-28.273437 61.601562 0 35.210938 7.082031 62.609375 28.273437 62.609375zm0 0" fill="#ddf5ff"/><path d="m443.835938 8.074219h-22.21875c21.195312 0 28.277343 26.394531 28.277343 61.601562 0 18.105469-1.882812 34.132813-6.582031 45.445313h-375.148438c-19.429687 0-26.996093-23.046875-28.117187-54.019532-.105469 2.792969-.15625 5.648438-.15625 8.574219 0 35.210938 7.082031 62.609375 28.273437 62.609375h375.671876c21.191406 0 28.273437-27.398437 28.273437-62.609375 0-35.207031-7.082031-61.601562-28.273437-61.601562zm0 0" fill="#c1e9f4"/><path d="m329.71875 8.074219h-146.429688s-15.148437 20.953125-15.148437 61.601562c0 40.648438 15.148437 62.609375 15.148437 62.609375h146.429688s15.148438-21.964844 15.148438-62.609375-15.148438-61.601562-15.148438-61.601562zm0 0" fill="#ff6969"/><path d="m443.835938 8.074219h-22.21875c21.195312 0 28.277343 26.394531 28.277343 61.601562 0 6.25-.226562 12.253907-.710937 17.898438-1.347656 15.609375-14.507813 27.542969-30.175782 27.542969h-350.84375c-19.429687 0-26.996093-23.042969-28.117187-54.015626-.105469 2.792969-.15625 5.648438-.15625 8.574219 0 35.207031 7.082031 62.609375 28.273437 62.609375h375.671876c21.191406 0 28.273437-27.402344 28.273437-62.609375 0-35.210937-7.082031-61.601562-28.273437-61.601562zm0 0" fill="#c1e9f4"/><path d="m175.332031 115.117188c3.910157 11.285156 7.957031 17.167968 7.957031 17.167968h146.429688s4.046875-5.882812 7.960938-17.167968zm0 0" fill="#ea4747"/><path d="m256 177.730469 49.484375 20.199219v-85.839844h-98.96875v85.839844zm0 0" fill="#ff6969"/><path d="m287.304688 112.089844h-80.789063v29.449218c13.941406 10.050782 31.027344 15.996094 49.484375 15.996094 6.488281 0 12.804688-.738281 18.875-2.132812 6.355469-1.457032 12.429688 3.296875 12.429688 9.820312v25.285156l18.179687 7.421876v-85.839844s-9.730469 0-18.179687 0zm0 0" fill="#ea4747"/><path d="m320.632812 72.703125c0 35.695313-28.9375 64.632813-64.632812 64.632813s-64.632812-28.9375-64.632812-64.632813c0-35.691406 28.9375-64.628906 64.632812-64.628906s64.632812 28.9375 64.632812 64.628906zm0 0" fill="#ffd664"/><path d="m294.949219 21.132812c8.191406 10.832032 13.058593 24.320313 13.058593 38.949219 0 35.695313-28.9375 64.632813-64.628906 64.632813-14.628906 0-28.117187-4.867188-38.949218-13.0625 11.796874 15.601562 30.503906 25.683594 51.570312 25.683594 35.695312 0 64.632812-28.9375 64.632812-64.632813 0-21.0625-10.085937-39.769531-25.683593-51.570313zm0 0" fill="#f9c646"/><path d="m483.851562 11.078125c-.847656-.316406-1.746093-.480469-2.652343-.480469h-15.4375c-6.933594-8.074218-15.296875-10.097656-21.925781-10.097656h-309.503907c-4.183593 0-7.574219 3.390625-7.574219 7.574219 0 4.183593 3.390626 7.574219 7.574219 7.574219h36.417969c-4.671875 10.847656-10.183594 28.949218-10.183594 54.027343 0 25.402344 5.648438 43.984375 10.335938 55.039063h-102.738282c-18.011718 0-20.699218-34.484375-20.699218-55.039063 0-24.648437 3.589844-54.027343 20.699218-54.027343h30.675782c4.183594 0 7.574218-3.390626 7.574218-7.574219 0-4.183594-3.390624-7.574219-7.574218-7.574219h-30.675782c-6.628906 0-14.992187 2.023438-21.925781 10.097656h-15.4375c-.90625 0-1.804687.164063-2.652343.480469-17.578126 6.570313-28.0937505 28.410156-28.148438 58.453125v.054688.179687.027344c.0273438 30.046875 10.546875 51.902343 28.148438 58.480469.847656.316406 1.746093.480468 2.652343.480468h14.8125c7.054688 8.90625 15.722657 11.105469 22.550781 11.105469h130.777344v58.070313c0 2.519531 1.257813 4.878906 3.351563 6.285156s4.753906 1.679687 7.085937.726562l46.621094-19.03125 46.621094 19.03125c.921875.375 1.894531.5625 2.859375.5625 1.484375 0 2.960937-.4375 4.226562-1.289062 2.09375-1.40625 3.351563-3.765625 3.351563-6.285156v-58.070313h48.503906c4.183594 0 7.574219-3.390625 7.574219-7.574219 0-4.179687-3.390625-7.570312-7.574219-7.570312h-19.453125c4.6875-11.054688 10.332031-29.636719 10.332031-55.039063 0-25.078125-5.511718-43.179687-10.183594-54.027343h101.578126c17.109374 0 20.699218 29.378906 20.699218 54.027343 0 20.554688-2.6875 55.039063-20.699218 55.039063h-46.875c-4.183594 0-7.574219 3.390625-7.574219 7.570312 0 4.183594 3.390625 7.574219 7.574219 7.574219h46.875c6.828124 0 15.496093-2.199219 22.550781-11.105469h14.8125c.90625 0 1.804687-.164062 2.652343-.480468 17.578126-6.570313 28.09375-28.410157 28.148438-58.453126 0-.015624 0-.035156 0-.054687v-.179687c0-.019532 0-.035157 0-.054688-.054688-30.042969-10.570312-51.882812-28.148438-58.453125zm-468.703124 58.597656c.015624-22.039062 6.710937-39.042969 17.164062-43.929687h5.664062c-3.800781 10.964844-5.660156 25.375-5.660156 43.929687 0 18.136719 1.859375 32.882813 5.515625 43.929688h-5.519531c-10.457031-4.882813-17.148438-21.855469-17.164062-43.929688zm297.910156 3.027344c0 31.464844-25.597656 57.058594-57.058594 57.058594s-57.058594-25.597657-57.058594-57.058594 25.597656-57.054687 57.058594-57.054687 57.058594 25.59375 57.058594 57.054687zm-125.40625 52.011719c-3.789063-7.226563-11.9375-26.136719-11.9375-55.039063 0-28.8125 8.101562-47.105469 11.851562-54.027343h24.261719c-17.039063 13.21875-28.03125 33.871093-28.03125 57.054687 0 16.632813 5.664063 31.953125 15.144531 44.175781v7.835938zm110.257812 61.941406-39.046875-15.9375c-1.835937-.75-3.890625-.75-5.726562 0l-39.046875 15.9375v-55.210938c11.828125 8.464844 26.292968 13.464844 41.910156 13.464844s30.082031-5 41.910156-13.464844zm39.382813-116.980469c0 28.917969-8.15625 47.832031-11.933594 55.039063h-12.300781v-7.835938c9.480468-12.222656 15.144531-27.542968 15.144531-44.175781 0-23.183594-10.992187-43.835937-28.03125-57.054687h25.269531c3.765625 6.949218 11.851563 25.238281 11.851563 54.027343zm142.394531 43.929688h-5.519531c3.65625-11.046875 5.515625-25.792969 5.515625-43.929688 0-18.554687-1.859375-32.964843-5.660156-43.929687h5.667968c10.453125 4.886718 17.144532 21.890625 17.160156 43.929687-.015624 22.042969-6.707031 39.042969-17.164062 43.929688zm0 0"/><path d="m256 112.59375c21.996094 0 39.890625-17.894531 39.890625-39.890625 0-21.992187-17.894531-39.886719-39.890625-39.886719s-39.890625 17.894532-39.890625 39.886719c0 21.996094 17.894531 39.890625 39.890625 39.890625zm0-64.628906c13.644531 0 24.742188 11.097656 24.742188 24.742187 0 13.640625-11.097657 24.742188-24.742188 24.742188s-24.742188-11.101563-24.742188-24.742188c0-13.644531 11.101563-24.742187 24.742188-24.742187zm0 0"/></svg>