<svg height="512pt" viewBox="-63 0 512 512" width="512pt" xmlns="http://www.w3.org/2000/svg"><path d="m334.769531 504.425781h-307c-11.152343 0-20.195312-9.042969-20.195312-20.195312v-426.164063c0-11.15625 9.042969-20.195312 20.195312-20.195312h307c11.15625 0 20.195313 9.042968 20.195313 20.195312v426.164063c0 11.152343-9.042969 20.195312-20.195313 20.195312zm0 0" fill="#ff6969"/><path d="m334.769531 37.871094h-242.367187v306.996094c0 22.273437 18.121094 40.394531 40.394531 40.394531h203.992187v90.886719c0 5.578124-4.523437 10.101562-10.101562 10.101562h-319.011719c0 .023438.003907.058594.007813.085938 1.050781 10.164062 9.640625 18.089843 20.085937 18.089843h307c11.152344 0 20.195313-9.042969 20.195313-20.195312v-426.164063c0-11.15625-9.042969-20.195312-20.195313-20.195312zm0 0" fill="#ea4747"/><path d="m43.929688 74.226562h274.679687v361.53125h-274.679687zm0 0" fill="#c9d2e3"/><path d="m92.402344 74.226562v270.640626c0 22.273437 18.121094 40.394531 40.394531 40.394531h168.644531v50.492187h17.167969v-361.527344zm0 0" fill="#adbbd5"/><path d="m112.597656 344.867188v-317.097657c0-11.152343 9.042969-20.195312 20.199219-20.195312h226.207031c11.15625 0 20.199219 9.042969 20.199219 20.195312v317.097657c0 11.15625-9.042969 20.199218-20.199219 20.199218h-226.207031c-11.15625 0-20.199219-9.042968-20.199219-20.199218zm0 0" fill="#ddf5ff"/><path d="m112.597656 344.867188v-317.097657c0-11.152343 9.042969-20.195312 20.199219-20.195312h226.207031c11.15625 0 20.199219 9.042969 20.199219 20.195312v317.097657c0 11.15625-9.042969 20.199218-20.199219 20.199218h-226.207031c-11.15625 0-20.199219-9.042968-20.199219-20.199218zm0 0" fill="#ddf5ff"/><path d="m359.003906 7.574219h-1.007812v325.175781c0 5.578125-4.523438 10.097656-10.101563 10.097656h-235.296875v2.019532c0 11.15625 9.042969 20.199218 20.199219 20.199218h226.207031c11.15625 0 20.199219-9.042968 20.199219-20.199218v-317.097657c0-11.152343-9.042969-20.195312-20.199219-20.195312zm0 0" fill="#c1e9f4"/><path d="m132.796875 7.574219h226.207031c11.15625 0 20.199219 9.042969 20.199219 20.195312v30.296875h-266.605469v-30.296875c0-11.152343 9.042969-20.195312 20.199219-20.195312zm0 0" fill="#8db0ff"/><path d="m359.003906 7.574219h-21.207031c11.15625 0 20.199219 9.042969 20.199219 20.195312v30.296875h21.207031v-30.296875c0-11.152343-9.042969-20.195312-20.199219-20.195312zm0 0" fill="#669af7"/><path d="m141.886719 87.351562h68.667969v68.671876h-68.667969zm0 0" fill="#ffd664"/><path d="m359.003906 0h-226.207031c-15.3125 0-27.773437 12.457031-27.773437 27.769531v2.527344h-77.253907c-15.3125 0-27.769531 12.457031-27.769531 27.769531v44.941406c0 4.179688 3.390625 7.570313 7.574219 7.570313 4.183593 0 7.574219-3.390625 7.574219-7.570313v-44.941406c0-6.960937 5.664062-12.621094 12.621093-12.621094h77.253907v21.207032h-61.09375c-4.183594 0-7.574219 3.390625-7.574219 7.574218v361.53125c0 4.179688 3.390625 7.570313 7.574219 7.570313h91.359374c4.183594 0 7.574219-3.390625 7.574219-7.570313 0-4.183593-3.390625-7.574218-7.574219-7.574218h-83.785156v-346.382813h53.519532v263.066407c0 15.3125 12.460937 27.773437 27.773437 27.773437h178.238281v55.539063h-140.304687c-4.183594 0-7.574219 3.390624-7.574219 7.574218s3.390625 7.574219 7.574219 7.574219h147.878906c4.183594 0 7.574219-3.390625 7.574219-7.574219v-63.113281h21.207031v111.589844c0 6.960937-5.660156 12.621093-12.621094 12.621093h-307c-6.960937 0-12.621093-5.664062-12.621093-12.621093v-345.785157c0-4.183593-3.390626-7.574218-7.574219-7.574218-4.183594 0-7.574219 3.390625-7.574219 7.574218v345.785157c0 15.3125 12.457031 27.769531 27.769531 27.769531h307c15.3125 0 27.769531-12.457031 27.769531-27.769531v-111.824219c13.648438-1.742188 24.238282-13.421875 24.238282-27.539062v-206.515626c0-4.183593-3.390625-7.574218-7.574219-7.574218s-7.574219 3.390625-7.574219 7.574218v206.515626c0 6.960937-5.664062 12.625-12.621094 12.625h-226.210937c-6.960937 0-12.625-5.664063-12.625-12.625v-279.226563h251.457031v37.492187c0 4.183594 3.390625 7.574219 7.574219 7.574219s7.574219-3.390625 7.574219-7.574219v-75.363281c0-15.3125-12.460938-27.769531-27.773438-27.769531zm-238.832031 50.492188v-22.722657c0-6.960937 5.664063-12.621093 12.625-12.621093h226.207031c6.960938 0 12.625 5.664062 12.625 12.621093v22.722657zm0 0"/><path d="m141.886719 163.597656h68.667969c4.183593 0 7.574218-3.390625 7.574218-7.574218v-68.671876c0-4.179687-3.390625-7.574218-7.574218-7.574218h-68.667969c-4.183594 0-7.574219 3.394531-7.574219 7.574218v68.671876c0 4.183593 3.390625 7.574218 7.574219 7.574218zm7.574219-68.671875h53.519531v53.523438h-53.519531zm0 0"/><path d="m344.867188 82.808594h-100.984376c-4.183593 0-7.574218 3.390625-7.574218 7.574218 0 4.183594 3.390625 7.574219 7.574218 7.574219h100.984376c4.183593 0 7.574218-3.390625 7.574218-7.574219 0-4.183593-3.390625-7.574218-7.574218-7.574218zm0 0"/><path d="m344.867188 116.132812h-100.984376c-4.183593 0-7.574218 3.390626-7.574218 7.574219 0 4.183594 3.390625 7.574219 7.574218 7.574219h100.984376c4.183593 0 7.574218-3.390625 7.574218-7.574219 0-4.183593-3.390625-7.574219-7.574218-7.574219zm0 0"/><path d="m344.867188 148.449219h-100.984376c-4.183593 0-7.574218 3.390625-7.574218 7.574219 0 4.183593 3.390625 7.574218 7.574218 7.574218h100.984376c4.183593 0 7.574218-3.390625 7.574218-7.574218 0-4.183594-3.390625-7.574219-7.574218-7.574219zm0 0"/><path d="m344.867188 183.796875h-202.980469c-4.183594 0-7.574219 3.390625-7.574219 7.570313 0 4.183593 3.390625 7.574218 7.574219 7.574218h202.980469c4.183593 0 7.574218-3.390625 7.574218-7.574218 0-4.179688-3.390625-7.570313-7.574218-7.570313zm0 0"/><path d="m344.867188 218.128906h-202.980469c-4.183594 0-7.574219 3.390625-7.574219 7.574219s3.390625 7.574219 7.574219 7.574219h202.980469c4.183593 0 7.574218-3.390625 7.574218-7.574219s-3.390625-7.574219-7.574218-7.574219zm0 0"/><path d="m344.867188 252.464844h-202.980469c-4.183594 0-7.574219 3.390625-7.574219 7.574218 0 4.183594 3.390625 7.574219 7.574219 7.574219h202.980469c4.183593 0 7.574218-3.390625 7.574218-7.574219 0-4.183593-3.390625-7.574218-7.574218-7.574218zm0 0"/></svg>