<svg height="512pt" viewBox="0 -30 512.00291 512" width="512pt" xmlns="http://www.w3.org/2000/svg"><path d="m337.699219 128.757812c0-5.097656-.492188-10.082031-1.386719-14.921874l38.253906-22.085938-27.234375-47.167969-38.261719 22.089844c-7.546874-6.457031-16.28125-11.566406-25.835937-14.945313v-44.152343h-54.464844v44.15625c-9.558593 3.378906-18.289062 8.484375-25.839843 14.941406l-38.257813-22.089844-27.234375 47.167969 38.253906 22.085938c-.894531 4.839843-1.386718 9.824218-1.386718 14.921874 0 5.101563.492187 10.082032 1.386718 14.925782l-38.253906 22.082031 27.234375 47.167969 38.257813-22.089844c7.550781 6.460938 16.28125 11.566406 25.839843 14.945312v44.15625h54.464844v-44.15625c9.554687-3.378906 18.289063-8.484374 25.835937-14.945312l38.261719 22.089844 27.234375-47.167969-38.253906-22.082031c.894531-4.84375 1.386719-9.824219 1.386719-14.925782zm-81.699219 27.234376c-15.039062 0-27.230469-12.191407-27.230469-27.234376 0-15.039062 12.191407-27.230468 27.230469-27.230468s27.234375 12.191406 27.234375 27.230468c0 15.039063-12.195313 27.234376-27.234375 27.234376zm0 0" fill="#8db0ff"/><path d="m337.699219 128.757812c0-5.097656-.492188-10.082031-1.386719-14.921874l38.253906-22.085938-27.234375-47.167969-21.835937 12.609375c1.304687 7.316406 1.988281 14.851563 1.988281 22.546875 0 61.652344-43.820313 113.0625-102.015625 124.796875 1.089844.4375 2.1875.859375 3.300781 1.253906v44.152344h54.464844v-44.152344c9.554687-3.378906 18.289063-8.488281 25.835937-14.945312l38.261719 22.089844 27.230469-47.167969-38.25-22.085937c.894531-4.839844 1.386719-9.820313 1.386719-14.921876zm0 0" fill="#669af7"/><path d="m401.601562 344.871094 34.335938-54.535156h68.488281l-34.382812-37.824219c-3.828125-4.210938-9.253907-6.609375-14.945313-6.609375h-49.613281c-13.847656 0-26.730469 7.09375-34.136719 18.796875l-31.550781 49.875h-167.59375l-31.550781-49.875c-7.40625-11.703125-20.289063-18.796875-34.136719-18.796875h-49.613281c-5.6875 0-11.117188 2.398437-14.945313 6.609375l-34.382812 37.824219h68.671875l34.335937 54.535156-34.335937 54.53125h-68.671875l34.382812 37.824218c3.828125 4.210938 9.253907 6.609376 14.945313 6.609376h49.609375c13.851562 0 26.734375-7.09375 34.136719-18.796876l31.554687-49.875h167.59375l31.554687 49.875c7.402344 11.703126 20.285157 18.796876 34.136719 18.796876h49.609375c5.691406 0 11.117188-2.398438 14.945313-6.609376l34.382812-37.824218h-68.488281zm0 0" fill="#c9d2e3"/><g fill="#adbbd5"><path d="m412.832031 282.632812-19.738281 31.460938c-4 6.371094-3.660156 14.550781.855469 20.570312l7.652343 10.207032 34.335938-54.535156h68.488281l-15.605469-17.167969h-58.878906c-6.949218 0-13.414062 3.574219-17.109375 9.464843zm0 0"/><path d="m452.875 420.054688c-3.828125 4.210937-9.253906 6.613281-14.945312 6.613281h-49.609376c-6.710937 0-13.183593-1.679688-18.925781-4.726563l1.957031 3.097656c7.402344 11.703126 20.285157 18.796876 34.136719 18.796876h49.609375c5.6875 0 11.117188-2.402344 14.945313-6.613282l34.382812-37.820312h-32.773437zm0 0"/><path d="m335.578125 367.953125c-3.628906-6.167969-10.25-9.957031-17.410156-9.957031h-152.011719c-6.921875 0-13.367188 3.546875-17.066406 9.398437l-25.605469 40.476563c-7.40625 11.703125-20.289063 18.796875-34.136719 18.796875h-56.984375l9.59375 10.558593c3.828125 4.210938 9.253907 6.609376 14.945313 6.609376h49.609375c13.851562 0 26.734375-7.09375 34.136719-18.796876l31.554687-49.875h167.617187zm0 0"/></g><path d="m256 163.566406c19.191406 0 34.804688-15.613281 34.804688-34.808594 0-19.191406-15.613282-34.804687-34.804688-34.804687s-34.804688 15.613281-34.804688 34.804687c0 19.195313 15.613282 34.808594 34.804688 34.808594zm0-54.464844c10.839844 0 19.660156 8.820313 19.660156 19.65625 0 10.839844-8.820312 19.660157-19.660156 19.660157s-19.65625-8.820313-19.65625-19.660157c0-10.839843 8.816406-19.65625 19.65625-19.65625zm0 0"/><path d="m130.878906 169.554688 27.230469 47.167968c1.003906 1.738282 2.660156 3.007813 4.597656 3.527344 1.941407.523438 4.007813.25 5.75-.753906l33.769531-19.5c5.867188 4.445312 12.21875 8.117187 18.96875 10.972656v38.972656c0 4.183594 3.390626 7.574219 7.574219 7.574219h54.464844c4.179687 0 7.570313-3.390625 7.570313-7.574219v-38.972656c6.753906-2.855469 13.105468-6.53125 18.972656-10.972656l33.769531 19.5c1.738281 1.003906 3.808594 1.273437 5.746094.753906 1.941406-.519531 3.59375-1.789062 4.597656-3.527344l27.234375-47.167968c2.089844-3.625.847656-8.253907-2.773438-10.347657l-33.765624-19.496093c.457031-3.664063.683593-7.328126.683593-10.953126s-.230469-7.289062-.683593-10.953124l33.765624-19.496094c3.621094-2.089844 4.863282-6.722656 2.773438-10.34375l-27.234375-47.167969c-1.003906-1.742187-2.65625-3.011719-4.597656-3.53125-1.941407-.519531-4.007813-.246094-5.746094.757813l-33.769531 19.496093c-5.867188-4.441406-12.21875-8.113281-18.972656-10.972656v-38.972656c0-4.183594-3.390626-7.574219-7.570313-7.574219h-54.464844c-4.183593 0-7.574219 3.390625-7.574219 7.574219v38.972656c-6.75 2.859375-13.101562 6.53125-18.96875 10.972656l-33.769531-19.496093c-1.742187-1.003907-3.8125-1.277344-5.75-.757813-1.9375.523437-3.59375 1.789063-4.597656 3.53125l-27.230469 47.167969c-2.09375 3.621094-.851562 8.253906 2.769532 10.34375l33.765624 19.496094c-.453124 3.664062-.683593 7.332031-.683593 10.953124 0 3.625.230469 7.292969.683593 10.957032l-33.765624 19.492187c-3.621094 2.09375-4.863282 6.722657-2.769532 10.347657zm48.597656-19.3125c2.777344-1.605469 4.242188-4.78125 3.660157-7.9375-.835938-4.519532-1.257813-9.078126-1.257813-13.546876 0-4.464843.421875-9.023437 1.257813-13.546874.582031-3.152344-.882813-6.328126-3.660157-7.933594l-31.695312-18.296875 19.660156-34.050781 31.703125 18.304687c2.777344 1.605469 6.269531 1.285156 8.710938-.804687 6.964843-5.960938 14.851562-10.523438 23.4375-13.558594 3.027343-1.070313 5.046875-3.929688 5.046875-7.140625v-36.578125h39.320312v36.578125c0 3.210937 2.019532 6.070312 5.046875 7.140625 8.585938 3.035156 16.472657 7.597656 23.441407 13.558594 2.4375 2.085937 5.929687 2.410156 8.710937.804687l31.699219-18.304687 19.660156 34.050781-31.695312 18.296875c-2.777344 1.605468-4.242188 4.78125-3.660157 7.933594.835938 4.523437 1.257813 9.082031 1.257813 13.546874 0 4.46875-.421875 9.027344-1.257813 13.546876-.582031 3.15625.882813 6.332031 3.660157 7.9375l31.695312 18.296874-19.660156 34.050782-31.699219-18.304688c-2.78125-1.605468-6.273437-1.285156-8.710937.804688-6.96875 5.960937-14.855469 10.523437-23.441407 13.558594-3.027343 1.070312-5.046875 3.929687-5.046875 7.140624v36.578126h-39.320312v-36.578126c0-3.210937-2.019532-6.070312-5.046875-7.140624-8.585938-3.035157-16.472657-7.597657-23.4375-13.558594-2.441407-2.089844-5.933594-2.410156-8.710938-.804688l-31.703125 18.304688-19.660156-34.050782zm0 0"/><path d="m504.425781 391.828125h-64.304687l-29.570313-46.960937 29.570313-46.957032h64.304687c3 0 5.714844-1.769531 6.929688-4.511718 1.210937-2.742188.691406-5.941407-1.324219-8.15625l-34.382812-37.824219c-5.25-5.777344-12.742188-9.089844-20.550782-9.089844h-49.609375c-16.539062 0-31.695312 8.34375-40.535156 22.320313l-29.324219 46.347656h-98.214844c-4.183593 0-7.574218 3.390625-7.574218 7.574218 0 4.183594 3.390625 7.574219 7.574218 7.574219h102.386719c2.597657 0 5.011719-1.328125 6.398438-3.523437l31.554687-49.875c6.050782-9.5625 16.417969-15.273438 27.734375-15.273438h49.609375c3.550782 0 6.953125 1.507813 9.34375 4.132813l22.863282 25.15625h-51.363282c-2.605468 0-5.023437 1.335937-6.410156 3.535156l-34.335938 54.535156c-1.550781 2.464844-1.550781 5.605469 0 8.070313l34.335938 54.53125c1.386719 2.203125 3.804688 3.539062 6.410156 3.539062h51.363282l-22.867188 25.15625c-2.386719 2.625-5.789062 4.128906-9.339844 4.128906h-49.609375c-11.316406 0-21.683593-5.707031-27.734375-15.269531l-31.550781-49.875c-1.390625-2.195312-3.804687-3.523437-6.402344-3.523437h-21.605469c-4.183593 0-7.574218 3.390625-7.574218 7.574218 0 4.179688 3.390625 7.574219 7.574218 7.574219h17.433594l29.324219 46.347657c8.84375 13.976562 23.996094 22.320312 40.535156 22.320312h49.609375c7.808594 0 15.300782-3.3125 20.550782-9.089844l34.382812-37.824218c2.019531-2.214844 2.539062-5.414063 1.324219-8.15625-1.214844-2.742188-3.929688-4.507813-6.929688-4.507813zm0 0"/><path d="m282.65625 367.589844h-110.453125c-2.597656 0-5.011719 1.332031-6.402344 3.527344l-31.550781 49.871093c-6.050781 9.5625-16.417969 15.273438-27.734375 15.273438h-49.609375c-3.550781 0-6.953125-1.503907-9.339844-4.132813l-22.871094-25.152344h51.550782c2.601562 0 5.023437-1.335937 6.40625-3.539062l34.335937-54.53125c1.554688-2.46875 1.554688-5.605469 0-8.074219l-34.335937-54.53125c-1.386719-2.203125-3.804688-3.539062-6.40625-3.539062h-51.550782l22.867188-25.152344c2.386719-2.625 5.792969-4.132813 9.339844-4.132813h49.609375c11.320312 0 21.6875 5.710938 27.738281 15.273438l31.550781 49.871094c1.390625 2.195312 3.804688 3.527344 6.402344 3.527344h29.808594c4.183593 0 7.574219-3.390626 7.574219-7.574219 0-4.183594-3.390626-7.574219-7.574219-7.574219h-25.640625l-29.320313-46.347656c-8.84375-13.976563-24-22.324219-40.539062-22.324219h-49.609375c-7.808594 0-15.296875 3.316406-20.546875 9.09375l-34.386719 37.820313c-2.015625 2.21875-2.53125 5.417968-1.320312 8.160156 1.214843 2.738281 3.929687 4.507812 6.925781 4.507812h64.492187l29.566406 46.960938-29.566406 46.957031h-64.492187c-2.996094 0-5.714844 1.769531-6.925781 4.511719-1.214844 2.742187-.695313 5.941406 1.320312 8.15625l34.386719 37.824218c5.25 5.777344 12.738281 9.089844 20.546875 9.089844h49.609375c16.539062 0 31.695312-8.34375 40.539062-22.320312l29.320313-46.347656h106.285156c4.179688 0 7.574219-3.394532 7.574219-7.574219 0-4.1875-3.390625-7.578125-7.574219-7.578125zm0 0"/></svg>