<svg height="511pt" viewBox="-63 0 511 511.99892" width="511pt" xmlns="http://www.w3.org/2000/svg"><path d="m163.390625 375.164062h36.351563v56.550782h-36.351563zm0 0" fill="#c9d2e3"/><path d="m312.847656 181.066406c0 72.503906-58.777344 131.28125-131.28125 131.28125s-131.28125-58.777344-131.28125-131.28125 58.777344-131.28125 131.28125-131.28125 131.28125 58.777344 131.28125 131.28125zm0 0" fill="#8db0ff"/><path d="m253.878906 71.488281c13.714844 20.738281 21.707032 45.589844 21.707032 72.316407 0 72.503906-58.777344 131.28125-131.28125 131.28125-26.722657 0-51.578126-7.992188-72.316407-21.707032 23.496094 35.527344 63.796875 58.96875 109.578125 58.96875 72.503906 0 131.28125-58.777344 131.28125-131.28125 0-45.78125-23.4375-86.085937-58.96875-109.578125zm0 0" fill="#669af7"/><path d="m181.566406 49.785156c-33.089844 0-63.320312 12.246094-86.40625 32.449219l11.492188 17.414063c2.058594 3.117187 5.273437 5.28125 8.933594 6.015624l26.007812 5.199219c2.371094.476563 4.582031 1.558594 6.410156 3.140625l42.195313 36.515625c4.503906 3.898438 10.988281 4.515625 16.148437 1.539063l10.746094-6.199219c4.269531-2.464844 9.527344-2.5 13.828125-.089844l13.386719 7.5c3.15625 1.765625 5.507812 4.6875 6.554687 8.148438l6.425781 21.203125c1.285157 4.234375 4.492188 7.609375 8.652344 9.109375l10.15625 3.65625c4.265625 1.535156 8.820313-1.414063 9.167969-5.933594.195313-2.546875-1.039063-4.992187-3.207031-6.347656l-5.261719-3.289063c-4.511719-2.820312-7.035156-7.960937-6.503906-13.257812l1.132812-11.34375c.613281-6.121094 5.148438-11.125 11.179688-12.332032 3.230469-.644531 6.128906-2.40625 8.183593-4.980468l9.8125-12.261719c-20.902343-44.804687-66.335937-75.855469-119.035156-75.855469zm0 0" fill="#7ae57d"/><path d="m253.894531 71.507812c13.703125 20.734376 21.691407 45.578126 21.691407 72.292969 0 .945313-.015626 1.886719-.035157 2.824219 1.894531-1.859375 4.316407-3.195312 7.054688-3.742188 3.226562-.644531 6.125-2.40625 8.179687-4.980468l9.8125-12.261719c-10.296875-22.078125-26.558594-40.800781-46.703125-54.132813zm0 0" fill="#66d166"/><path d="m272.488281 7.570312-14.996093 28.617188c52.078124 27.402344 87.671874 82.058594 87.671874 144.878906 0 90.207032-73.386718 163.597656-163.597656 163.597656-62.820312 0-117.472656-35.597656-144.875-87.675781l-28.617187 14.996094c32.816406 62.363281 98.265625 104.992187 173.492187 104.992187 108.027344 0 195.914063-87.882812 195.914063-195.910156 0-75.230468-42.628907-140.679687-104.992188-173.496094zm0 0" fill="#c9d2e3"/><path d="m314.105469 36.9375c32.117187 34.90625 51.761719 81.457031 51.761719 132.515625 0 108.027344-87.886719 195.910156-195.914063 195.910156-51.058594 0-97.609375-19.640625-132.511719-51.757812 35.824219 38.933593 87.167969 63.371093 144.125 63.371093 108.027344 0 195.914063-87.882812 195.914063-195.910156 0-56.957031-24.441407-108.300781-63.375-144.128906zm0 0" fill="#adbbd5"/><g fill="#ffd664"><path d="m102.484375 285.859375-22.964844 22.964844c-9.492187-7.585938-18.117187-16.210938-25.71875-25.703125l22.972657-22.972656c7.332031 9.714843 15.996093 18.378906 25.710937 25.710937zm0 0"/><path d="m309.324219 79.019531-22.964844 22.964844c-7.332031-9.714844-15.996094-18.382813-25.710937-25.710937l22.976562-22.976563c9.492188 7.605469 18.117188 16.230469 25.699219 25.722656zm0 0"/><path d="m262.355469 468.070312h-161.578125v-16.160156c0-11.152344 9.042968-20.195312 20.199218-20.195312h121.183594c11.152344 0 20.195313 9.042968 20.195313 20.195312zm0 0"/></g><path d="m242.160156 431.714844h-17.167968c11.152343 0 20.195312 9.042968 20.195312 20.195312v16.160156h17.167969v-16.160156c0-11.152344-9.042969-20.195312-20.195313-20.195312zm0 0" fill="#f9c646"/><path d="m282.554688 504.425781h-201.972657v-16.160156c0-11.152344 9.042969-20.195313 20.195313-20.195313h161.578125c11.15625 0 20.199219 9.042969 20.199219 20.195313zm0 0" fill="#636363"/><path d="m262.355469 468.070312h-20.195313c11.152344 0 20.195313 9.042969 20.195313 20.195313 0 2.230469-1.808594 4.039063-4.039063 4.039063h-177.734375v12.121093h201.972657v-16.160156c0-11.152344-9.042969-20.195313-20.199219-20.195313zm0 0" fill="#494949"/><path d="m76.574219 176.539062 1.636719-33.511718c.207031-4.242188 3.257812-7.800782 7.410156-8.65625l23.472656-4.832032c2.433594-.5 4.964844-.007812 7.035156 1.371094l24.054688 16.035156c3.550781 2.367188 5.03125 6.847657 3.597656 10.867188l-.957031 2.671875c-1.03125 2.894531-.570313 6.113281 1.238281 8.597656 2.910156 4 8.441406 5.023438 12.589844 2.328125l6.480468-4.214844c3.683594-2.390624 8.539063-1.882812 11.644532 1.222657l1.519531 1.519531c3.898437 3.898438 3.570313 10.316406-.710937 13.792969l-7.722657 6.277343c-.289062.230469-.5625.480469-.820312.75l-26.425781 27.308594c-2.175782 2.246094-3.074219 5.429688-2.394532 8.484375l6.617188 29.789063c.246094 1.109375.289062 2.253906.121094 3.378906l-2.019532 13.625c-.894531 6.03125-7.253906 9.585938-12.859375 7.183594l-.257812-.105469c-1.8125-.777344-3.332031-2.113281-4.335938-3.808594l-13.5-22.785156c-.730469-1.230469-1.734375-2.277344-2.933593-3.054687l-13.421876-8.726563c-3.023437-1.964844-4.636718-5.496094-4.144531-9.066406l2.484375-18.011719c.460938-3.347656-.929687-6.683594-3.632812-8.710938l-8.511719-6.382812c-2.082031-1.5625-3.414063-3.921875-3.671875-6.511719l-1.546875-15.449219c-.046875-.457031-.058594-.914062-.035156-1.375zm0 0" fill="#7ae57d"/><path d="m385.054688 181.066406c0-4.183594-3.390626-7.574218-7.574219-7.574218-4.183594 0-7.574219 3.390624-7.574219 7.574218 0 103.851563-84.488281 188.339844-188.339844 188.339844-67.585937 0-129.410156-35.941406-163.125-94.300781l15.214844-7.972657c30.707031 52.6875 86.703125 85.105469 147.910156 85.105469 94.386719 0 171.171875-76.789062 171.171875-171.171875 0-61.207031-32.414062-117.203125-85.105469-147.914062l7.96875-15.207032c47.539063 27.554688 81.421876 75.335938 91.253907 129.242188.75 4.117188 4.691406 6.847656 8.808593 6.09375 4.117188-.75 6.84375-4.695312 6.09375-8.808594-5.539062-30.363281-18.242187-59.578125-36.742187-84.480468-18.199219-24.503907-42.058594-44.945313-69-59.121094-1.78125-.9375002-3.859375-1.125-5.777344-.527344-1.921875.597656-3.527343 1.933594-4.457031 3.714844l-15 28.617187c-1.9375 3.699219-.515625 8.273438 3.183594 10.21875 6.359375 3.347657 12.421875 7.089844 18.167968 11.183594l-12.332031 12.332031c-22.292969-15.261718-49.238281-24.203125-78.234375-24.203125-46.914062 0-90.324218 23.4375-116.121094 62.695313-2.296874 3.496094-1.328124 8.195312 2.167969 10.492187 3.496094 2.292969 8.191407 1.324219 10.488281-2.171875 4.625-7.035156 9.890626-13.488281 15.679688-19.328125l6.550781 9.925781c3.148438 4.769532 8.167969 8.148438 13.769531 9.269532l26.003907 5.199218c1.085937.21875 2.105469.714844 2.941406 1.441407l42.195313 36.511719c6.941406 6.003906 16.941406 6.960937 24.890624 2.375l10.746094-6.199219c1.949219-1.125 4.378906-1.140625 6.34375-.042969l13.386719 7.496094c1.457031.816406 2.523437 2.144531 3.007813 3.742187l6.421874 21.203125c1.96875 6.492188 6.953126 11.738282 13.335938 14.035156l10.15625 3.65625c1.609375.578126 3.265625.863282 4.914062.863282 2.734376 0 5.4375-.785156 7.816407-2.324219 3.816406-2.46875 6.207031-6.484375 6.554687-11.015625.414063-5.375-2.167968-10.492188-6.742187-13.351562l-5.261719-3.285157c-2.085938-1.304687-3.230469-3.636719-2.984375-6.082031l1.132813-11.347656c.285156-2.824219 2.34375-5.097656 5.128906-5.65625 4.96875-.992188 9.445312-3.71875 12.613281-7.675782l1.726563-2.15625c4.429687 12.71875 6.847656 26.375 6.847656 40.585938 0 68.214844-55.496094 123.710938-123.710938 123.710938-68.210937 0-123.707031-55.496094-123.707031-123.707032 0-12.851562 1.960937-25.515625 5.828125-37.636718 1.269531-3.984376-.929688-8.246094-4.914062-9.519532-3.984376-1.269531-8.25.929688-9.519532 4.914063-4.339844 13.613281-6.542968 27.824219-6.542968 42.242187 0 28.996094 8.941406 55.941406 24.199218 78.234375l-12.332031 12.332031c-4.09375-5.746093-7.835937-11.808593-11.183594-18.167968-1.949219-3.699219-6.519531-5.121094-10.21875-3.183594l-28.617187 14.996094c-1.78125.933594-3.117188 2.539062-3.714844 4.457031-.601562 1.921875-.410156 4 .527344 5.78125 31.332031 59.546875 89.046875 99.117187 154.445312 107.410156v41.214844h-34.839844c-15.316406 0-27.773437 12.457031-27.773437 27.769531v9.644532c-11.640625 3.304687-20.195313 14.023437-20.195313 26.710937v16.160156c0 4.183594 3.390626 7.574219 7.574219 7.574219h201.972657c4.183593 0 7.574218-3.390625 7.574218-7.574219v-16.160156c0-12.6875-8.554687-23.40625-20.199218-26.710937v-9.644532c0-15.3125-12.457032-27.769531-27.769532-27.769531h-34.839844v-41.210937c100.089844-12.695313 177.734376-98.382813 177.734376-201.863282zm-100.976563-117.511718c5.335937 4.664062 10.351563 9.679687 14.996094 15.003906l-12.105469 12.105468c-4.609375-5.375-9.625-10.386718-15-15zm.792969 69.617187c-.941406 1.179687-2.273438 1.988281-3.753906 2.285156-9.355469 1.871094-16.28125 9.507813-17.226563 19l-1.136719 11.347657c-.808594 8.085937 2.890625 15.789062 9.679688 20.210937l-3.925782-1.414063c-1.902343-.683593-3.386718-2.246093-3.96875-4.175781l-6.425781-21.203125c-1.625-5.363281-5.214843-9.824218-10.101562-12.566406l-13.390625-7.496094c-6.59375-3.691406-14.761719-3.640625-21.3125.136719l-10.746094 6.199219c-2.367188 1.367187-5.34375 1.082031-7.410156-.707032l-42.191406-36.511718c-2.816407-2.433594-6.234376-4.109375-9.882813-4.839844l-26.003906-5.199219c-1.667969-.335937-3.160157-1.339843-4.097657-2.757812l-7.765624-11.765625c21.480468-16.871094 48.207031-26.355469 76.359374-26.355469 47.917969 0 89.558594 27.386719 110.09375 67.328125zm35.550781 47.894531c0-20.691406-4.554687-40.332031-12.703125-57.992187-.160156-.4375-.355469-.859375-.59375-1.265625-3.140625-6.628906-6.792969-12.972656-10.902344-18.976563l12.355469-12.355469c18.558594 25.960938 29.011719 57.433594 29.011719 90.589844 0 86.03125-69.992188 156.023438-156.023438 156.023438-33.15625 0-64.628906-10.453125-90.589844-29.011719l12.355469-12.355469c22.292969 15.261719 49.238281 24.199219 78.234375 24.199219 76.566406 0 138.855469-62.289063 138.855469-138.855469zm-244.257813 90.402344c4.613282 5.375 9.625 10.386719 15 15l-12.105468 12.105469c-5.320313-4.644531-10.339844-9.664063-15.003906-14.996094zm178.617188 180.441406v8.585938h-95.9375c-4.183594 0-7.574219 3.390625-7.574219 7.574218 0 4.183594 3.390625 7.574219 7.574219 7.574219h103.511719c6.960937 0 12.625 5.664063 12.625 12.621094v8.585937h-186.824219v-8.585937c0-6.960937 5.660156-12.621094 12.621094-12.621094h22.785156c4.183594 0 7.574219-3.390625 7.574219-7.574219 0-4.183593-3.390625-7.574218-7.574219-7.574218h-15.210938v-8.585938c0-6.960937 5.664063-12.621094 12.625-12.621094h121.183594c6.957032 0 12.621094 5.664063 12.621094 12.621094zm-62.609375-27.769531h-21.207031v-39.859375c3.515625.179688 7.050781.273438 10.601562.273438 3.558594 0 7.09375-.09375 10.605469-.277344zm0 0"/><path d="m150.914062 160.359375c2.605469-7.304687-.078124-15.414063-6.53125-19.714844l-24.054687-16.035156c-2.78125-1.855469-6.015625-2.835937-9.359375-2.835937-1.140625 0-2.285156.117187-3.402344.347656l-23.46875 4.832031c-7.542968 1.554687-13.074218 8.011719-13.453125 15.703125l-1.632812 33.519531c-.039063.828125-.019531 1.671875.0625 2.496094l1.542969 15.445313c.46875 4.6875 2.898437 8.996093 6.667968 11.820312l8.507813 6.382812c.503906.375.761719.996094.675781 1.617188l-2.484375 18.011719c-.890625 6.449219 2.0625 12.90625 7.519531 16.453125l13.421875 8.722656c.222657.144531.410157.339844.542969.570312l13.503906 22.78125c1.835938 3.101563 4.554688 5.488282 7.878906 6.914063l.246094.101563c2.121094.910156 4.355469 1.371093 6.644532 1.371093 8.296874 0 15.476562-6.191406 16.691406-14.40625l2.019531-13.625c.304687-2.050781.230469-4.113281-.21875-6.132812l-6.621094-29.789063c-.125-.566406.039063-1.15625.445313-1.574218l26.429687-27.3125c.046875-.046876.09375-.089844.148438-.136719l7.722656-6.273438c3.703125-3.007812 5.964844-7.464843 6.210937-12.226562.246094-4.765625-1.546874-9.429688-4.917968-12.800781l-1.519532-1.519532c-3.1875-3.1875-7.425781-4.941406-11.933593-4.941406-3.269531 0-6.449219.941406-9.195313 2.726562l-6.480468 4.210938c-.285157.1875-.597657.28125-.933594.28125-.265625 0-.933594-.070312-1.402344-.710938-.335938-.460937-.421875-1.058593-.230469-1.597656zm.675782 20.128906c3.265625 0 6.441406-.945312 9.1875-2.726562l6.480468-4.214844c.285157-.183594.601563-.277344.9375-.277344.269532 0 .785157.0625 1.222657.503907l1.519531 1.519531c.449219.449219.523438.957031.503906 1.308593-.019531.351563-.144531.851563-.632812 1.25l-7.722656 6.273438c-.519532.421875-1.023438.882812-1.488282 1.363281l-26.425781 27.3125c-3.957031 4.085938-5.582031 9.839844-4.347656 15.394531l6.621093 29.789063c.046876.207031.050782.417969.023438.625l-2.019531 13.625c-.144531.960937-.988281 1.480469-1.710938 1.480469-.226562 0-.449219-.046875-.6875-.152344l-.246093-.101562c-.335938-.144532-.617188-.390626-.804688-.707032l-13.5-22.785156c-1.316406-2.222656-3.15625-4.140625-5.320312-5.546875l-13.425782-8.722656c-.554687-.363281-.855468-1.023438-.765625-1.683594l2.484375-18.011719c.835938-6.070312-1.691406-12.128906-6.59375-15.804687l-8.507812-6.382813c-.386719-.289062-.632813-.726562-.679688-1.207031l-1.546875-15.449219c-.007812-.085937-.007812-.171875-.003906-.253906l1.632813-33.511719c.039062-.785156.605468-1.445312 1.375-1.605469l23.472656-4.832031c.113281-.023437.230468-.035156.347656-.035156.339844 0 .671875.101563.957031.289063l24.054688 16.035156c.660156.441406.933593 1.269531.667969 2.015625l-.957032 2.675781c-1.878906 5.253906-1.039062 11.085938 2.242188 15.601562 3.167968 4.351563 8.269531 6.949219 13.65625 6.949219zm0 0"/></svg>