<svg height="512pt" viewBox="0 -30 512 512" width="512pt" xmlns="http://www.w3.org/2000/svg"><path d="m7.574219 403.441406h496.851562v40.394532h-496.851562zm0 0" fill="#ffd664"/><path d="m487.925781 403.441406v13.894532c0 5.523437-4.476562 10-10 10h-470.351562v16.5h496.851562v-40.394532zm0 0" fill="#f9c646"/><path d="m70.183594 27.769531h113.105468v375.671875h-113.105468zm0 0" fill="#7ae57d"/><path d="m157.035156 27.769531v349.414063c0 5.578125-4.523437 10.097656-10.101562 10.097656h-76.75v16.160156h113.105468v-375.671875zm0 0" fill="#66d166"/><path d="m70.183594 120.679688h113.105468v189.851562h-113.105468zm0 0" fill="#ffd664"/><path d="m158.042969 120.679688v154.507812c0 5.578125-4.519531 10.097656-10.097657 10.097656h-77.761718v25.246094h113.105468v-189.851562zm0 0" fill="#f9c646"/><path d="m183.289062 78.265625h92.90625v325.175781h-92.90625zm0 0" fill="#8db0ff"/><path d="m260.039062 78.265625v298.917969c0 5.578125-4.519531 10.097656-10.097656 10.097656h-66.652344v16.160156h92.90625v-325.175781zm0 0" fill="#669af7"/><path d="m183.289062 322.652344h92.90625v34.332031h-92.90625zm0 0" fill="#ffd664"/><path d="m260.039062 322.652344h16.15625v34.332031h-16.15625zm0 0" fill="#f9c646"/><path d="m369.105469 47.96875h72.710937v355.46875h-72.710937zm0 0" fill="#ff6969"/><path d="m425.65625 47.96875v329.214844c0 5.578125-4.519531 10.097656-10.097656 10.097656h-46.453125v16.160156h72.707031v-355.472656zm0 0" fill="#ea4747"/><path d="m369.105469 100.480469h72.710937v34.335937h-72.710937zm0 0" fill="#ddf5ff"/><path d="m425.65625 100.480469h16.160156v34.335937h-16.160156zm0 0" fill="#c1e9f4"/><path d="m369.105469 322.652344h72.710937v34.332031h-72.710937zm0 0" fill="#ddf5ff"/><path d="m425.65625 322.652344h16.160156v34.332031h-16.160156zm0 0" fill="#c1e9f4"/><path d="m276.195312 7.574219h92.910157v395.867187h-92.910157zm0 0" fill="#ff933b"/><path d="m306.492188 37.871094h32.316406v335.273437h-32.316406zm0 0" fill="#ff6969"/><path d="m352.945312 7.574219v369.609375c0 5.578125-4.519531 10.097656-10.097656 10.097656h-66.652344v16.160156h92.910157v-395.867187zm0 0" fill="#f27d27"/><path d="m504.425781 395.867188h-55.035156v-136.082032c0-4.179687-3.394531-7.570312-7.574219-7.570312-4.183594 0-7.574218 3.390625-7.574218 7.570312v55.292969h-57.5625v-172.6875h57.5625v81.988281c0 4.183594 3.390624 7.574219 7.574218 7.574219 4.179688 0 7.574219-3.390625 7.574219-7.574219v-176.410156c0-4.183594-3.394531-7.574219-7.574219-7.574219h-65.136718v-32.820312c0-4.183594-3.390626-7.574219-7.574219-7.574219h-92.90625c-4.183594 0-7.574219 3.390625-7.574219 7.574219v63.117187h-77.761719v-42.921875c0-4.179687-3.390625-7.574219-7.574219-7.574219h-113.105468c-4.179688 0-7.574219 3.394532-7.574219 7.574219v24.910157c0 4.183593 3.394531 7.574218 7.574219 7.574218 4.183594 0 7.574218-3.390625 7.574218-7.574218v-17.335938h97.957032v77.761719h-97.957032v-24.910157c0-4.183593-3.390624-7.574218-7.574218-7.574218-4.179688 0-7.574219 3.390625-7.574219 7.574218v307.667969h-55.035156c-4.183594 0-7.574219 3.394531-7.574219 7.574219v40.398438c0 4.179687 3.390625 7.570312 7.574219 7.570312h496.851562c4.183594 0 7.574219-3.390625 7.574219-7.570312v-40.398438c0-4.179688-3.390625-7.570312-7.574219-7.570312zm-127.746093-31.308594h57.558593v31.308594h-57.558593zm57.5625-34.332032v19.183594h-57.5625v-19.183594zm-57.5625-202.984374v-19.1875h57.558593v19.1875zm57.5625-71.699219v37.363281h-57.5625v-37.363281zm-165.621094 30.296875v26.925781c0 4.183594 3.394531 7.574219 7.574218 7.574219 4.183594 0 7.574219-3.390625 7.574219-7.574219v-97.617187h77.761719v380.714843h-77.761719v-247.371093c0-4.183594-3.390625-7.574219-7.574219-7.574219-4.179687 0-7.574218 3.390625-7.574218 7.574219v166.582031h-77.757813v-229.234375zm-77.757813 310.027344v-31.308594h77.757813v31.308594zm77.757813-46.457032h-77.757813v-19.183594h77.757813zm-92.90625-221.15625v174.703125h-97.957032v-174.703125zm-97.957032 189.851563h97.957032v77.757812h-97.957032zm419.09375 118.15625h-481.703124v-25.246094h481.703124zm0 0"/><path d="m306.492188 380.71875h32.316406c4.183594 0 7.574218-3.390625 7.574218-7.574219v-335.273437c0-4.183594-3.390624-7.574219-7.574218-7.574219h-32.316406c-4.183594 0-7.574219 3.390625-7.574219 7.574219v335.273437c0 4.183594 3.390625 7.574219 7.574219 7.574219zm7.574218-335.273438h17.167969v320.125h-17.167969zm0 0"/></svg>