<svg height="512pt" viewBox="0 -14 512 512" width="512pt" xmlns="http://www.w3.org/2000/svg"><path d="m478.171875 237.824219-15.089844-19.207031c-4.660156-5.925782-7.566406-13.042969-8.390625-20.539063l-10.070312-91.566406c-6.195313-56.308594-53.769532-98.9375-110.421875-98.9375h-158.820313c-54.738281 0-101.316406 39.875-109.757812 93.960937l-5.925782 38c-1.066406 6.839844-3.875 13.289063-8.148437 18.730469l-15.695313 19.976563h188.269532c10.710937 0 20.988281 4.253906 28.5625 11.828124l35.917968 35.921876c7.574219 7.574218 17.851563 11.828124 28.5625 11.828124h161.007813zm0 0" fill="#7ae57d"/><path d="m463.082031 218.617188c-4.660156-5.929688-7.566406-13.042969-8.390625-20.539063l-10.070312-91.566406c-6.195313-56.308594-53.769532-98.9375-110.421875-98.9375h-31.304688c56.652344 0 104.226563 42.628906 110.417969 98.9375l10.074219 91.566406c.359375 3.296875 1.117187 6.519531 2.242187 9.605469 1.941406 5.3125-1.890625 10.953125-7.546875 10.953125h-90.382812c-10.710938 0-20.988281-4.257813-28.5625-11.832031l-35.917969-35.917969c-7.574219-7.574219-17.851562-11.832031-28.5625-11.832031h-183.730469l-15.074219 19.1875h188.269532c10.710937 0 20.988281 4.253906 28.5625 11.828124l35.917968 35.921876c7.574219 7.574218 17.851563 11.828124 28.5625 11.828124h161.003907zm0 0" fill="#66d166"/><path d="m478.171875 269.128906h-176.152344c-10.714843 0-20.988281-4.257812-28.566406-11.832031l-35.917969-35.917969c-7.574218-7.574218-17.679687-11.832031-28.394531-11.832031h-175.3125c-5.574219 0-10.097656-4.519531-10.097656-10.097656v-11.109375c0-5.578125 4.523437-10.097656 10.097656-10.097656h190.292969c10.710937 0 20.988281 4.253906 28.5625 11.828124l35.917968 35.921876c7.574219 7.574218 17.851563 11.828124 28.5625 11.828124h161.007813c5.574219 0 10.097656 4.523438 10.097656 10.101563v11.105469c0 5.578125-4.523437 10.101562-10.097656 10.101562zm0 0" fill="#ddf5ff"/><path d="m272.445312 225.992188c7.574219 7.574218 17.851563 11.828124 28.5625 11.828124h16.15625c-10.710937 0-20.984374-4.253906-28.5625-11.828124l-35.917968-35.921876c-7.574219-7.574218-17.847656-11.828124-28.5625-11.828124h-16.15625c10.710937 0 20.984375 4.253906 28.5625 11.828124zm0 0" fill="#ddf5ff"/><path d="m478.171875 237.824219h-16.160156c5.578125 0 10.097656 4.519531 10.097656 10.097656 0 3.347656-2.710937 6.058594-6.058594 6.058594h-156.558593c-10.714844 0-20.988282-4.253907-28.5625-11.832031l-36.039063-36.039063c-7.5-7.496094-17.667969-11.710937-28.273437-11.710937h-182.789063c-4.882813 0-8.957031-3.46875-9.894531-8.078126-.132813.652344-.203125 1.328126-.203125 2.019532v11.109375c0 5.578125 4.523437 10.097656 10.097656 10.097656h175.144531c10.710938 0 20.988282 4.257813 28.5625 11.832031l35.917969 35.917969c7.574219 7.574219 17.851563 11.832031 28.5625 11.832031h176.152344c5.578125 0 10.101562-4.519531 10.101562-10.097656v-11.109375c0-5.578125-4.523437-10.097656-10.097656-10.097656zm0 0" fill="#c1e9f4"/><path d="m200.457031 322.453125 69.078125-69.078125-24.28125-24.277344-44.796875 44.796875zm0 0" fill="#494949"/><path d="m166.121094 209.546875h34.335937v153.5h-34.335937zm0 0" fill="#636363"/><path d="m166.121094 209.546875v14.136719h10.101562c5.574219 0 10.097656 4.519531 10.097656 10.097656v129.265625h14.136719v-153.5zm0 0" fill="#494949"/><path d="m128.757812 386.273438v49.480468h-43.046874c-8.246094 0-16.402344-1.679687-23.972657-4.941406l-34.6875-14.945312c-11.820312-5.089844-19.476562-16.726563-19.476562-29.597657 0-12.867187 7.65625-24.503906 19.476562-29.59375l34.6875-14.945312c7.570313-3.261719 15.726563-4.945313 23.972657-4.945313h43.046874zm0 0" fill="#ffd664"/><path d="m61.738281 430.8125-34.6875-14.945312c-11.820312-5.089844-19.476562-16.726563-19.476562-29.59375 0-3.128907.460937-6.183594 1.316406-9.089844 2.660156 9.046875 9.214844 16.65625 18.160156 20.507812l34.6875 14.941406c7.570313 3.261719 15.726563 4.945313 23.972657 4.945313h15.78125c5.574218 0 10.097656-4.519531 10.097656-10.097656v-39.386719s0-16.753906 0-31.304688h17.167968v98.964844h-43.046874c-8.242188 0-16.402344-1.679687-23.972657-4.941406zm0 0" fill="#f9c646"/><path d="m288.316406 386.273438v65.640624h-149.460937c-5.578125 0-10.097657-4.523437-10.097657-10.101562v-112.09375c0-5.574219 4.519532-10.097656 10.097657-10.097656h149.460937zm0 0" fill="#ffd664"/><path d="m128.757812 441.816406v-21.207031c0 5.574219 4.519532 10.097656 10.097657 10.097656h119.164062c5.578125 0 10.097657-4.519531 10.097657-10.097656v-100.988281h20.199218v132.292968h-149.460937c-5.578125 0-10.097657-4.523437-10.097657-10.097656zm0 0" fill="#f9c646"/><path d="m466.050781 386.273438v76.75h-167.636719c-5.578124 0-10.097656-4.523438-10.097656-10.101563v-133.300781c0-5.578125 4.519532-10.097656 10.097656-10.097656h167.636719zm0 0" fill="#ffd664"/><path d="m288.316406 452.921875v-24.234375c0 5.574219 4.519532 10.097656 10.097656 10.097656h133.304688c5.574219 0 10.097656-4.519531 10.097656-10.097656v-119.164062h24.238282v153.5h-167.640626c-5.578124 0-10.097656-4.523438-10.097656-10.101563zm0 0" fill="#f9c646"/><path d="m504.425781 468.070312v-163.597656c0-4.460937-3.617187-8.078125-8.078125-8.078125h-22.21875c-4.460937 0-8.078125 3.617188-8.078125 8.078125v163.597656c0 4.460938 3.617188 8.078126 8.078125 8.078126h22.21875c4.460938 0 8.078125-3.617188 8.078125-8.078126zm0 0" fill="#ff933b"/><path d="m496.347656 296.394531h-7.070312v155.519531c0 4.460938-3.617188 8.078126-8.078125 8.078126h-15.148438v8.078124c0 4.464844 3.617188 8.082032 8.078125 8.082032h22.21875c4.460938 0 8.078125-3.617188 8.078125-8.082032v-163.597656c0-4.460937-3.617187-8.078125-8.078125-8.078125zm0 0" fill="#f4812c"/><path d="m496.347656 288.820312h-22.21875c-7.769531 0-14.214844 5.695313-15.429687 13.128907h-65.609375c-4.183594 0-7.574219 3.390625-7.574219 7.574219 0 4.183593 3.390625 7.574218 7.574219 7.574218h65.386718v138.351563h-160.0625c-1.394531 0-2.523437-1.132813-2.523437-2.527344v-133.300781c0-1.390625 1.128906-2.523438 2.523437-2.523438h59.171876c4.183593 0 7.574218-3.394531 7.574218-7.574218 0-4.183594-3.390625-7.574219-7.574218-7.574219h-59.171876c-7.03125 0-13.101562 4.136719-15.941406 10.097656h-60.902344l47.996094-47.996094c8.875 8.167969 20.316406 12.652344 32.449219 12.652344h176.15625c9.742187 0 17.671875-7.929687 17.671875-17.675781v-11.105469c0-8.34375-5.820312-15.335937-13.605469-17.183594l-13.199219-16.800781c-3.789062-4.820312-6.148437-10.589844-6.816406-16.6875l-10.074218-91.566406c-6.628907-60.25-57.335938-105.683594-117.949219-105.683594h-12.136719c-4.183594 0-7.574219 3.390625-7.574219 7.574219 0 4.183593 3.390625 7.574219 7.574219 7.574219h12.136719c52.875 0 97.109375 39.632812 102.890625 92.191406l10.074218 91.566406c.980469 8.910156 4.425782 17.34375 9.960938 24.394531l5.460938 6.949219h-145.421876c-8.765624 0-17.007812-3.414062-23.203124-9.613281l-35.921876-35.917969c-9.058593-9.0625-21.105468-14.050781-33.917968-14.050781h-93.722656c-4.183594 0-7.574219 3.390625-7.574219 7.574219 0 4.183593 3.390625 7.574218 7.574219 7.574218h93.722656c8.765625 0 17.007812 3.414063 23.207031 9.613282l35.917969 35.917968c9.0625 9.058594 21.109375 14.050782 33.917968 14.050782h161 .011719c1.390625.003906 2.519531 1.132812 2.519531 2.523437v11.109375c0 1.390625-1.132812 2.523438-2.523437 2.523438h-176.152344c-8.765625 0-17.007812-3.414063-23.207031-9.613282l-3.917969-3.914062c0-.003906-.003906-.003906-.003906-.007813l-24.277344-24.277343c-.003906-.003907-.011719-.007813-.015625-.011719l-7.707031-7.707031c-9.058594-9.058594-21.042969-14.050782-33.75-14.050782h-175.3125c-1.390625 0-2.523437-1.132812-2.523437-2.523437v-11.109375c0-1.390625 1.132812-2.523438 2.523437-2.523438h2.011719.003906.011719 59.15625c4.183593 0 7.574219-3.390625 7.574219-7.574218 0-4.183594-3.390626-7.574219-7.574219-7.574219h-43.578125l6.066406-7.722657c5.066406-6.449218 8.414062-14.140624 9.679688-22.242187l5.925781-38c7.917969-50.734375 50.929687-87.554687 102.277343-87.554687h111.449219c4.183594 0 7.574219-3.390626 7.574219-7.574219 0-4.183594-3.390625-7.574219-7.574219-7.574219h-111.449219c-28.28125 0-55.6875 10.128906-77.167968 28.519531-21.484375 18.390625-35.714844 43.90625-40.074219 71.847657l-5.929687 38c-.863282 5.542968-3.15625 10.804687-6.621094 15.21875l-13.488282 17.167968c-8.9375.875-15.945312 8.425782-15.945312 17.585938v11.105468c0 9.746094 7.929688 17.675782 17.675781 17.675782h124.71875v94.925781h-19.695312c-9.574219 0-17.375 7.65625-17.644531 17.167969h-35.5c-9.328126 0-18.402344 1.871094-26.96875 5.5625l-34.6875 14.941406c-14.613282 6.292969-24.054688 20.644531-24.054688 36.554688 0 15.910156 9.441406 30.257812 24.054688 36.550781l34.6875 14.945312c8.566406 3.6875 17.640624 5.558594 26.96875 5.558594h35.546874c.773438 9.039063 8.363282 16.160156 17.597657 16.160156h143.164062c2.613281 6.5 8.972657 11.105469 16.394531 11.105469h160.285157c1.214843 7.433594 7.660156 13.128906 15.429687 13.128906h22.21875c8.628906 0 15.652344-7.023437 15.652344-15.652344v-163.597656c0-8.628906-7.023438-15.652344-15.652344-15.652344zm-237.527344-35.445312-50.789062 50.789062v-27.132812l37.222656-37.222656zm-26.640624-26.640625 2.363281 2.363281-26.511719 26.511719v-38.488281h1.109375c8.660156 0 16.839844 3.414062 23.039063 9.613281zm-58.484376-9.613281h19.1875v94.925781h-19.1875zm-108.960937 206.734375-34.6875-14.941407c-9.050781-3.898437-14.898437-12.785156-14.898437-22.640624 0-9.855469 5.847656-18.742188 14.898437-22.640626l34.6875-14.945312c6.664063-2.871094 13.71875-4.324219 20.976563-4.324219h35.472656v83.820313h-35.472656c-7.257813 0-14.3125-1.457032-20.976563-4.328125zm71.597656 17.960937v-112.09375c0-1.394531 1.132813-2.527344 2.523438-2.527344h141.886719v117.144532h-141.886719c-1.390625 0-2.523438-1.132813-2.523438-2.523438zm360.519531 26.253906c0 .28125-.226562.503907-.503906.503907h-22.21875c-.277344 0-.503906-.222657-.503906-.503907v-163.597656c0-.277344.226562-.503906.503906-.503906h22.21875c.277344 0 .503906.226562.503906.503906zm0 0"/></svg>