<svg height="512pt" viewBox="0 -12 512 512" width="512pt" xmlns="http://www.w3.org/2000/svg"><path d="m159.054688 7.574219h345.371093v345.371093h-345.371093zm0 0" fill="#ff6969"/><path d="m478.167969 7.574219v298.917969c0 11.15625-9.042969 20.199218-20.195313 20.199218h-64.632812c-11.152344 0-20.195313-9.042968-20.195313-20.199218v-171.675782c0-11.15625-9.042969-20.199218-20.199219-20.199218h-193.890624v238.328124h345.371093v-345.371093zm0 0" fill="#ea4747"/><path d="m163.09375 480.1875h-155.519531v-345.371094h345.371093v260.542969c0 20.078125-16.273437 36.355469-36.351562 36.355469s-36.355469-16.277344-36.355469-36.355469zm0 0" fill="#ffd664"/><path d="m7.574219 459.992188v20.195312h155.519531l27.890625-20.195312zm0 0" fill="#f9c646"/><path d="m332.75 134.816406v260.074219c0 8.691406-6.664062 16.179687-15.34375 16.605469-7.113281.351562-13.296875-3.925782-15.796875-10.082032-1.507813-3.71875-5.238281-6.054687-9.25-6.054687h-12.125c0 19.839844 15.898437 35.96875 35.648437 36.347656 20.378907.390625 37.0625-16.679687 37.0625-37.066406v-259.824219zm0 0" fill="#f9c646"/><path d="m316.59375 431.714844c-20.078125 0-36.355469-16.277344-36.355469-36.355469l-117.144531 84.828125 163.464844-49.855469s-4.496094 1.382813-9.964844 1.382813zm0 0" fill="#c9d2e3"/><path d="m504.425781 0h-345.371093c-4.183594 0-7.574219 3.390625-7.574219 7.574219v119.667969h-143.90625c-4.183594 0-7.574219 3.390624-7.574219 7.574218v130.242188c0 4.179687 3.390625 7.574218 7.574219 7.574218 4.183593 0 7.574219-3.394531 7.574219-7.574218v-58.039063h330.222656v188.339844c0 15.871094-12.910156 28.78125-28.777344 28.78125-15.871094 0-28.78125-12.910156-28.78125-28.78125 0-2.84375-1.597656-5.453125-4.132812-6.746094-2.535157-1.296875-5.582032-1.058593-7.882813.613281l-115.160156 83.386719h-145.488281v-172.117187c0-4.183594-3.390626-7.574219-7.574219-7.574219-4.183594 0-7.574219 3.390625-7.574219 7.574219v179.691406c0 4.183594 3.390625 7.574219 7.574219 7.574219h155.503906c.003906 0 .007813.003906.015625.003906.378906 0 .765625-.035156 1.148438-.09375.132812-.019531.265624-.0625.398437-.089844.21875-.046875.441406-.082031.660156-.148437l163.460938-49.855469h.007812c.003907-.003906.011719-.003906.015625-.007813.070313-.019531.136719-.050781.207032-.074218 18.203124-5.367188 31.527343-22.21875 31.527343-42.136719v-34.839844h143.90625c4.183594 0 7.574219-3.390625 7.574219-7.574219v-163.535156c0-4.179687-3.390625-7.570312-7.574219-7.570312-4.183593 0-7.574219 3.390625-7.574219 7.570312v155.960938h-136.332031v-210.554688c0-4.183594-3.390625-7.574218-7.574219-7.574218h-186.316406v-47.464844h330.222656v74.226562c0 4.183594 3.390626 7.574219 7.574219 7.574219 4.183594 0 7.574219-3.390625 7.574219-7.574219v-146.429687c0-4.183594-3.390625-7.574219-7.574219-7.574219zm-300.128906 459.703125 70.433594-51.003906c3.183593 9.964843 9.835937 18.398437 18.53125 23.871093zm141.074219-267.832031h-330.222656v-49.480469h330.222656zm-178.742188-127.238282v-49.484374h330.222656v49.484374zm0 0"/><path d="m56.046875 253.476562h248.425781c4.183594 0 7.574219-3.390624 7.574219-7.574218s-3.390625-7.574219-7.574219-7.574219h-248.425781c-4.183594 0-7.574219 3.390625-7.574219 7.574219s3.390625 7.574218 7.574219 7.574218zm0 0"/><path d="m56.046875 301.949219h248.425781c4.183594 0 7.574219-3.390625 7.574219-7.574219s-3.390625-7.574219-7.574219-7.574219h-248.425781c-4.183594 0-7.574219 3.390625-7.574219 7.574219s3.390625 7.574219 7.574219 7.574219zm0 0"/><path d="m56.046875 350.421875h127.242187c4.183594 0 7.574219-3.390625 7.574219-7.574219s-3.390625-7.574218-7.574219-7.574218h-127.242187c-4.183594 0-7.574219 3.390624-7.574219 7.574218s3.390625 7.574219 7.574219 7.574219zm0 0"/><path d="m56.046875 398.894531h67.660156c4.183594 0 7.574219-3.390625 7.574219-7.574219 0-4.183593-3.390625-7.574218-7.574219-7.574218h-67.660156c-4.183594 0-7.574219 3.390625-7.574219 7.574218 0 4.183594 3.390625 7.574219 7.574219 7.574219zm0 0"/></svg>