<svg height="512pt" viewBox="-50 0 512 512.00075" width="512pt" xmlns="http://www.w3.org/2000/svg"><path d="m29.792969 48.976562h351.429687v254.488282h-351.429687zm0 0" fill="#ddf5ff"/><path d="m88.867188 196.417969h68.671874v68.671875h-68.671874zm0 0" fill="#ffd664"/><path d="m29.792969 48.976562v21.207032h309.015625c11.15625 0 20.195312 9.042968 20.195312 20.199218v213.082032h22.21875v-254.488282zm0 0" fill="#c1e9f4"/><path d="m393.339844 47.96875h-375.667969c-5.574219 0-10.097656-4.523438-10.097656-10.101562v-20.195313c0-5.574219 4.519531-10.097656 10.097656-10.097656h375.667969c5.578125 0 10.101562 4.519531 10.101562 10.097656v20.199219c0 5.574218-4.523437 10.097656-10.101562 10.097656zm0 0" fill="#7ae57d"/><path d="m393.339844 7.574219h-20.195313c5.578125 0 10.097657 4.519531 10.097657 10.097656v20.199219c0 5.574218-4.519532 10.097656-10.097657 10.097656h20.195313c5.578125 0 10.101562-4.519531 10.101562-10.097656v-20.199219c0-5.578125-4.523437-10.097656-10.101562-10.097656zm0 0" fill="#66d166"/><path d="m393.339844 343.855469h-375.667969c-5.574219 0-10.097656-4.519531-10.097656-10.097657v-20.195312c0-5.578125 4.519531-10.101562 10.097656-10.101562h375.667969c5.578125 0 10.101562 4.523437 10.101562 10.101562v20.195312c0 5.578126-4.523437 10.097657-10.101562 10.097657zm0 0" fill="#7ae57d"/><path d="m393.339844 303.464844h-20.195313c5.578125 0 10.097657 4.519531 10.097657 10.097656v20.195312c0 5.578126-4.519532 10.101563-10.097657 10.101563h20.195313c5.578125 0 10.101562-4.523437 10.101562-10.101563v-20.195312c0-5.578125-4.523437-10.097656-10.101562-10.097656zm0 0" fill="#66d166"/><path d="m225.703125 343.855469v160.570312h-40.390625v-160.570312zm0 0" fill="#ff933b"/><path d="m225.703125 343.855469v160.570312h-40.390625v-160.570312zm0 0" fill="#7ae57d"/><path d="m185.308594 343.855469v16.160156h14.140625c5.574219 0 10.097656 4.519531 10.097656 10.097656v134.3125h16.160156v-160.570312zm0 0" fill="#66d166"/><path d="m297.40625 504.425781-71.703125-160.570312h40.394531l71.703125 160.570312zm0 0" fill="#7ae57d"/><path d="m259.679688 365.996094 61.816406 138.429687h16.304687l-71.703125-160.570312h-40.390625l7.214844 16.160156h17.539063c3.984374 0 7.59375 2.34375 9.21875 5.980469zm0 0" fill="#66d166"/><path d="m113.609375 504.425781 71.699219-160.570312h-40.394532l-71.699218 160.570312zm0 0" fill="#7ae57d"/><path d="m144.914062 343.855469-7.214843 16.160156h7.804687c7.316406 0 12.203125 7.535156 9.222656 14.214844l-58.136718 130.195312h17.019531l71.699219-160.570312zm0 0" fill="#66d166"/><path d="m88.867188 188.84375c-4.183594 0-7.574219 3.390625-7.574219 7.574219v68.671875c0 4.183594 3.390625 7.574218 7.574219 7.574218h68.671874c4.183594 0 7.574219-3.390624 7.574219-7.574218v-68.671875c0-4.183594-3.390625-7.574219-7.574219-7.574219zm61.097656 68.671875h-53.523438v-53.523437h53.523438zm0 0"/><path d="m322.144531 191.871094h-131.28125c-4.183593 0-7.574219 3.394531-7.574219 7.574218 0 4.183594 3.390626 7.574219 7.574219 7.574219h131.28125c4.183594 0 7.574219-3.390625 7.574219-7.574219 0-4.179687-3.390625-7.574218-7.574219-7.574218zm0 0"/><path d="m329.71875 232.773438c0-4.183594-3.390625-7.574219-7.574219-7.574219h-131.28125c-4.183593 0-7.574219 3.390625-7.574219 7.574219 0 4.183593 3.390626 7.574218 7.574219 7.574218h131.28125c4.183594 0 7.574219-3.390625 7.574219-7.574218zm0 0"/><path d="m190.863281 257.515625c-4.183593 0-7.574219 3.390625-7.574219 7.574219 0 4.179687 3.390626 7.570312 7.574219 7.570312h100.988281c4.183594 0 7.574219-3.390625 7.574219-7.570312 0-4.183594-3.390625-7.574219-7.574219-7.574219zm0 0"/><path d="m393.339844 55.542969c9.746094 0 17.675781-7.929688 17.675781-17.675781v-20.195313c0-9.742187-7.929687-17.671875-17.675781-17.671875h-285.621094c-4.183594 0-7.574219 3.390625-7.574219 7.574219 0 4.183593 3.390625 7.574219 7.574219 7.574219h285.621094c1.394531 0 2.527344 1.132812 2.527344 2.523437v20.199219c0 1.390625-1.132813 2.523437-2.527344 2.523437h-375.667969c-1.390625 0-2.523437-1.132812-2.523437-2.523437v-20.199219c0-1.390625 1.132812-2.523437 2.523437-2.523437h55.121094c4.183593 0 7.574219-3.390626 7.574219-7.574219 0-4.183594-3.390626-7.574219-7.574219-7.574219h-55.121094c-9.742187 0-17.671875 7.929688-17.671875 17.671875v20.199219c0 9.742187 7.929688 17.671875 17.671875 17.671875h4.546875v81.96875c0 4.179687 3.390625 7.574219 7.574219 7.574219 4.179687 0 7.574219-3.394532 7.574219-7.574219v-81.96875h336.28125v240.347656h-336.28125v-123.035156c0-4.183594-3.394532-7.574219-7.574219-7.574219-4.183594 0-7.574219 3.390625-7.574219 7.574219v123.035156h-4.546875c-9.742187 0-17.671875 7.925781-17.671875 17.671875v20.195312c0 9.746094 7.929688 17.675782 17.671875 17.675782h115.566406l-66.9375 149.90625c-1.046875 2.339844-.835937 5.054687.5625 7.207031 1.394531 2.152344 3.785157 3.453125 6.351563 3.453125h40.394531c2.988281 0 5.695313-1.757812 6.914063-4.484375l57.210937-128.121094v125.03125c0 4.183594 3.390625 7.574219 7.574219 7.574219h40.394531c4.183594 0 7.574219-3.390625 7.574219-7.574219v-125.03125l57.210937 128.121094c1.21875 2.726563 3.925781 4.484375 6.914063 4.484375h40.394531.019531c4.183594 0 7.574219-3.390625 7.574219-7.574219 0-1.296875-.324219-2.515625-.898437-3.582031l-66.71875-149.410156h57.375c4.183593 0 7.574218-3.394532 7.574218-7.574219 0-4.183594-3.390625-7.574219-7.574218-7.574219h-317.476563c-1.390625 0-2.523437-1.132812-2.523437-2.527344v-20.195312c0-1.390625 1.132812-2.527344 2.523437-2.527344h375.667969c1.394531 0 2.527344 1.132813 2.527344 2.527344v20.195312c0 1.394532-1.132813 2.527344-2.527344 2.527344h-22.59375c-4.183594 0-7.574219 3.390625-7.574219 7.574219 0 4.179687 3.390625 7.574219 7.574219 7.574219h22.59375c9.746094 0 17.671875-7.929688 17.671875-17.675782v-20.195312c0-9.746094-7.925781-17.671875-17.671875-17.671875h-4.542969v-240.347656zm-132.152344 295.886719 64.933594 145.421874h-23.804688l-64.933594-145.421874zm-43.058594 0v145.421874h-25.246094v-145.421874zm-44.496094 0-64.933593 145.421874h-23.808594l64.9375-145.421874zm0 0"/><path d="m183.777344 107.535156c-2.164063-1.609375-5.015625-1.953125-7.496094-.894531l-116.132812 49.484375c-3.847657 1.640625-5.640626 6.089844-4 9.9375 1.226562 2.878906 4.027343 4.605469 6.972656 4.605469.988281 0 1.996094-.195313 2.964844-.609375l112.128906-47.777344 48.011718 35.777344c2.253907 1.675781 5.246094 1.972656 7.785157.761718l94.578125-45.078124-5.109375 16.859374c-1.214844 4 1.046875 8.230469 5.050781 9.445313.734375.21875 1.472656.324219 2.199219.324219 3.25 0 6.253906-2.105469 7.246093-5.378906l10.101563-33.324219c1.171875-3.871094-.90625-7.980469-4.71875-9.335938l-31.304687-11.105469c-3.941407-1.398437-8.269532.660157-9.671876 4.605469-1.398437 3.941407.664063 8.269531 4.605469 9.671875l14.140625 5.015625-89.511718 42.664063zm0 0"/></svg>