<svg height="512pt" viewBox="0 0 512 512" width="512pt" xmlns="http://www.w3.org/2000/svg"><path d="m130.777344 48.976562h351.433594v275.695313h-351.433594zm0 0" fill="#ddf5ff"/><path d="m130.777344 48.976562v21.207032h309.019531c11.152344 0 20.195313 9.042968 20.195313 20.199218v234.289063h22.21875v-275.695313zm0 0" fill="#c1e9f4"/><path d="m494.328125 47.96875h-375.667969c-5.578125 0-10.101562-4.523438-10.101562-10.101562v-20.195313c0-5.574219 4.523437-10.097656 10.101562-10.097656h375.667969c5.578125 0 10.097656 4.519531 10.097656 10.097656v20.199219c0 5.574218-4.519531 10.097656-10.097656 10.097656zm0 0" fill="#ff933b"/><path d="m494.328125 7.574219h-20.199219c5.578125 0 10.101563 4.519531 10.101563 10.097656v20.199219c0 5.574218-4.523438 10.097656-10.101563 10.097656h20.199219c5.574219 0 10.097656-4.519531 10.097656-10.097656v-20.199219c0-5.578125-4.519531-10.097656-10.097656-10.097656zm0 0" fill="#f27d27"/><path d="m363.742188 127.125v83.117188h-83.117188c0 45.90625 37.214844 83.121093 83.117188 83.121093 45.90625 0 83.121093-37.214843 83.121093-83.121093 0-45.902344-37.214843-83.117188-83.121093-83.117188zm0 0" fill="#8db0ff"/><path d="m363.742188 97.359375c-62.34375 0-112.882813 50.539063-112.882813 112.882813h112.882813zm0 0" fill="#ffd664"/><path d="m48.976562 298.414062h20.199219v-38.375h-20.199219c-5.574218 0-10.097656 4.519532-10.097656 10.097657v18.179687c0 5.578125 4.523438 10.097656 10.097656 10.097656zm0 0" fill="#feccc1"/><path d="m218.636719 298.414062h-20.199219v-38.375h20.199219c5.574219 0 10.097656 4.519532 10.097656 10.097657v18.179687c0 5.578125-4.523437 10.097656-10.097656 10.097656zm0 0" fill="#f9b3a7"/><path d="m133.808594 391.320312h-27.269532l-54.46875 15.007813c-26.285156 7.242187-44.496093 31.152344-44.496093 58.414063v39.683593h253.476562v-39.558593c0-27.324219-18.289062-51.265626-44.652343-58.457032l-55.324219-15.089844zm0 0" fill="#7ae57d"/><path d="m216.398438 406.410156-10.4375-2.847656c14.0625 11.242188 22.773437 28.484375 22.773437 47.339844v53.523437h32.316406v-39.558593c0-27.324219-18.289062-51.265626-44.652343-58.457032zm0 0" fill="#66d166"/><path d="m106.539062 360.015625v31.304687l27.269532 24.238282 27.265625-24.238282v-31.304687zm0 0" fill="#f9b3a7"/><path d="m133.808594 248.929688h-64.632813v50.496093c0 35.691407 28.9375 64.628907 64.632813 64.628907 35.695312 0 64.628906-28.9375 64.628906-64.628907v-50.496093zm0 0" fill="#feccc1"/><path d="m172.179688 248.929688v50.496093c0 31.195313-22.101563 57.226563-51.5 63.292969 4.238281.875 8.628906 1.335938 13.125 1.335938 35.695312 0 64.632812-28.9375 64.632812-64.628907v-50.496093zm0 0" fill="#f9b3a7"/><path d="m119.667969 175.210938h28.277343c11.15625 0 20.195313 9.042968 20.195313 20.195312v44.4375c0 11.152344-9.042969 20.195312-20.195313 20.195312h-78.769531v-34.335937c0-27.886719 22.605469-50.492187 50.492188-50.492187zm0 0" fill="#ffd664"/><path d="m150.972656 175.464844v55.289062c0 5.578125-4.519531 10.097656-10.097656 10.097656h-71.699219v19.1875h78.769531c11.152344 0 20.195313-9.042968 20.195313-20.195312v-44.433594c0-10.125-7.453125-18.480468-17.167969-19.945312zm0 0" fill="#f9c646"/><path d="m178.242188 195.40625c-5.578126 0-10.101563 4.523438-10.101563 10.101562v34.335938c0 11.152344 9.042969 20.195312 20.199219 20.195312h10.097656v-44.433593c0-11.15625-9.042969-20.199219-20.195312-20.199219zm0 0" fill="#f9c646"/><path d="m494.328125 0h-299.488281c-4.183594 0-7.574219 3.390625-7.574219 7.574219 0 4.183593 3.390625 7.574219 7.574219 7.574219h299.488281c1.390625 0 2.523437 1.132812 2.523437 2.523437v20.199219c0 1.390625-1.132812 2.523437-2.523437 2.523437h-375.667969c-1.394531 0-2.527344-1.132812-2.527344-2.523437v-20.199219c0-1.390625 1.132813-2.523437 2.527344-2.523437h40.867188c4.183594 0 7.574218-3.390626 7.574218-7.574219 0-4.183594-3.390624-7.574219-7.574218-7.574219h-40.867188c-9.746094 0-17.675781 7.929688-17.675781 17.671875v20.199219c0 9.742187 7.929687 17.671875 17.675781 17.671875h4.542969v112.09375h-3.535156c-32.019531 0-58.066407 26.050781-58.066407 58.066406v26.765625h-12.625c-9.742187 0-17.671874 7.925781-17.671874 17.671875v18.175781c0 9.746094 7.929687 17.675782 17.671874 17.675782h12.9375c2.210938 24.40625 16.609376 45.339843 37.050782 56.652343v22.910157l-48.90625 13.476562c-29.472656 8.113281-50.058594 35.136719-50.058594 65.707031v39.6875c0 4.183594 3.390625 7.574219 7.574219 7.574219h20.617187c4.183594 0 7.574219-3.390625 7.574219-7.574219 0-4.183593-3.390625-7.574219-7.574219-7.574219h-13.042968v-32.113281c0-23.777343 16.007812-44.792969 38.929687-51.105469l50.507813-13.914062 24.1875 21.5c1.4375 1.273438 3.234374 1.914062 5.03125 1.914062 1.800781 0 3.597656-.640624 5.035156-1.914062l24.199218-21.511719 51.371094 14.007813c23 6.273437 39.0625 27.3125 39.0625 51.15625v31.980468h-189.683594c-4.183593 0-7.574218 3.390626-7.574218 7.574219 0 4.183594 3.390625 7.574219 7.574218 7.574219h197.261719c4.179688 0 7.570313-3.390625 7.570313-7.574219v-39.554687c0-30.65625-20.652344-57.703125-50.226563-65.769532l-49.746093-13.566406v-22.847656c12.453124-6.851562 22.8125-17.347656 29.492187-30.441406h284.070313c4.179687 0 7.570312-3.390625 7.570312-7.574219v-172.058594c0-4.179687-3.390625-7.574219-7.570312-7.574219-4.183594 0-7.574219 3.394532-7.574219 7.574219v164.484375h-270.800781c.914062-3.640625 1.53125-7.347656 1.871093-11.109375h12.929688c9.742187 0 17.671875-7.929687 17.671875-17.671875v-18.179687c0-9.746094-7.929688-17.671875-17.671875-17.671875h-12.625v-36.859375c0-15.316407-12.457031-27.773438-27.769531-27.773438-1.195313 0-2.359376.121094-3.484376.347657-3.191406-11.820313-14-20.542969-26.8125-20.542969h-9.59375v-112.09375h336.285157v61.601562c0 4.183594 3.390625 7.574219 7.574219 7.574219 4.179687 0 7.570312-3.390625 7.570312-7.574219v-61.601562h4.546875c9.742187 0 17.671875-7.929688 17.671875-17.675781v-20.195313c0-9.742187-7.929688-17.671875-17.671875-17.671875zm-447.875 288.316406v-18.179687c0-1.390625 1.132813-2.523438 2.527344-2.523438h12.621093v23.226563h-12.625c-1.390624 0-2.523437-1.132813-2.523437-2.523438zm107.046875 99.605469-19.691406 17.503906-19.695313-17.503906v-19.042969c6.265625 1.777344 12.867188 2.75 19.695313 2.75 6.773437 0 13.386718-.953125 19.691406-2.734375zm-19.691406-31.441406c-31.464844 0-57.058594-25.59375-57.058594-57.054688v-31.8125h71.195312c7.953126 0 15.128907-3.367187 20.195313-8.742187 5.070313 5.375 12.246094 8.742187 20.199219 8.742187h2.523437v31.8125c0 7.734375-1.515625 15.230469-4.5 22.269531-.007812.015626-.015625.03125-.019531.042969-8.984375 21.109375-29.601562 34.742188-52.535156 34.742188zm87.351562-86.34375v18.179687c0 1.394532-1.132812 2.523438-2.523437 2.523438h-12.625v-23.226563h12.625c1.390625 0 2.523437 1.132813 2.523437 2.523438zm-42.917968-67.15625c6.960937 0 12.621093 5.664062 12.621093 12.625v36.859375h-2.523437c-6.960938 0-12.625-5.664063-12.625-12.621094v-34.335938c0-1.394531 1.132812-2.527343 2.527344-2.527343zm-17.675782-7.574219v44.4375c0 6.960938-5.660156 12.621094-12.621094 12.621094h-71.195312v-26.761719c0-23.667969 19.253906-42.917969 42.917969-42.917969h28.277343c6.960938 0 12.621094 5.664063 12.621094 12.621094zm0 0"/><path d="m250.855469 217.820312h22.511719c3.863281 46.476563 42.917968 83.117188 90.375 83.117188 50.011718 0 90.695312-40.683594 90.695312-90.691406 0-47.460938-36.640625-86.515625-83.121094-90.375v-22.511719c0-4.183594-3.390625-7.574219-7.574218-7.574219-66.421876 0-120.460938 54.035156-120.460938 120.460938 0 4.183594 3.394531 7.574218 7.574219 7.574218zm188.433593-7.574218c0 41.65625-33.890624 75.542968-75.546874 75.542968-39.097657 0-71.355469-29.855468-75.167969-67.96875h75.167969c4.183593 0 7.574218-3.390624 7.574218-7.574218v-75.171875c38.117188 3.8125 67.972656 36.070312 67.972656 75.171875zm-83.117187-105.046875v97.472656h-97.472656c3.714843-52.050781 45.417969-93.757813 97.472656-97.472656zm0 0"/><path d="m266.605469 84.324219c0-4.183594-3.390625-7.574219-7.574219-7.574219h-91.898438c-4.183593 0-7.574218 3.390625-7.574218 7.574219 0 4.183593 3.390625 7.574219 7.574218 7.574219h91.898438c4.183594 0 7.574219-3.390626 7.574219-7.574219zm0 0"/><path d="m167.132812 116.132812c-4.183593 0-7.574218 3.390626-7.574218 7.574219 0 4.183594 3.390625 7.574219 7.574218 7.574219h51.503907c4.179687 0 7.574219-3.390625 7.574219-7.574219 0-4.183593-3.394532-7.574219-7.574219-7.574219zm0 0"/></svg>