<svg height="511pt" viewBox="0 -16 511.99931 511" width="511pt" xmlns="http://www.w3.org/2000/svg"><path d="m19.691406 221.925781h123.203125v250.445313h-123.203125zm0 0" fill="#c9d2e3"/><path d="m142.894531 221.925781v197.933594h-25.246093v-54.675781c0-2.679688 1.0625-5.25 2.957031-7.140625l4.183593-4.183594c1.894532-1.894531 2.957032-4.464844 2.957032-7.140625v-124.792969zm0 0" fill="#adbbd5"/><path d="m19.691406 436.015625h72.710938v36.355469h-72.710938zm0 0" fill="#636363"/><path d="m142.894531 149.214844h-119.085937c-5.199219 0-9.550782 3.949218-10.054688 9.121094l-6.179687 63.589843h135.320312zm0 0" fill="#ff6969"/><path d="m116.636719 149.214844v34.480468c0 2.675782 1.066406 5.246094 2.960937 7.140626l4.183594 4.183593c1.546875 1.550781 2.53125 3.554688 2.839844 5.699219h-116.984375l-2.0625 21.207031h135.320312v-72.710937zm0 0" fill="#ea4747"/><path d="m54.027344 336.039062v-50.492187c0-15.058594 12.207031-27.265625 27.265625-27.265625 15.058593 0 27.265625 12.207031 27.265625 27.265625v50.492187zm0 0" fill="#ddf5ff"/><path d="m81.292969 258.28125c-2.261719 0-4.460938.28125-6.5625.800781 11.886719 2.9375 20.703125 13.667969 20.703125 26.464844v50.492187h13.125v-50.492187c0-15.058594-12.207032-27.265625-27.265625-27.265625zm0 0" fill="#c1e9f4"/><path d="m369.105469 221.925781h123.203125v250.445313h-123.203125zm0 0" fill="#c9d2e3"/><path d="m472.109375 221.925781h20.199219v250.445313h-20.199219zm0 0" fill="#adbbd5"/><path d="m369.105469 221.925781v197.933594h26.253906v-54.675781c0-2.679688-1.0625-5.25-2.957031-7.140625l-4.183594-4.183594c-1.894531-1.894531-2.957031-4.464844-2.957031-7.140625v-124.792969zm0 0" fill="#adbbd5"/><path d="m419.597656 436.015625h72.710938v36.355469h-72.710938zm0 0" fill="#636363"/><path d="m472.109375 436.015625h20.199219v36.355469h-20.199219zm0 0" fill="#494949"/><path d="m369.105469 149.214844h119.085937c5.199219 0 9.546875 3.949218 10.050782 9.121094l6.183593 63.589843h-135.320312zm0 0" fill="#ff6969"/><path d="m488.191406 149.214844h-12l3.929688 40.425781c.578125 5.9375-4.089844 11.078125-10.050782 11.078125h-100.964843v21.207031h135.320312l-6.183593-63.589843c-.5-5.171876-4.851563-9.121094-10.050782-9.121094zm0 0" fill="#ea4747"/><path d="m112.601562 399.660156h286.800782v36.355469h-286.800782zm0 0" fill="#c9d2e3"/><path d="m387.28125 399.660156v14.140625c0 5.574219-4.519531 10.097657-10.097656 10.097657h-264.582032v12.117187h286.796876v-36.355469zm0 0" fill="#adbbd5"/><path d="m92.402344 436.015625h327.195312v36.355469h-327.195312zm0 0" fill="#c9d2e3"/><path d="m407.480469 436.015625v14.140625c0 5.574219-4.523438 10.097656-10.101563 10.097656h-304.976562v12.117188h327.195312v-36.355469zm0 0" fill="#adbbd5"/><path d="m163.09375 149.214844h186.824219v250.445312h-186.824219zm0 0" fill="#adbbd5"/><path d="m289.324219 399.660156v-92.011718c0-6.714844-3.335938-12.992188-8.90625-16.746094l-13.191407-8.894532c-6.792968-4.578124-15.679687-4.601562-22.492187-.058593l-13.066406 8.710937c-5.621094 3.746094-8.996094 10.050782-8.996094 16.804688v92.199218h66.652344zm0 0" fill="#ffd664"/><path d="m280.417969 290.902344-13.191407-8.894532c-5.640624-3.800781-12.71875-4.453124-18.863281-1.964843 1.285157.519531 2.535157 1.167969 3.714844 1.964843l13.191406 8.894532c5.570313 3.753906 8.90625 10.03125 8.90625 16.746094v92.011718h15.148438v-92.011718c0-6.714844-3.335938-12.992188-8.90625-16.746094zm0 0" fill="#f9c646"/><path d="m183.289062 189.609375 10.097657-10.097656v-30.296875h-60.589844v30.296875l10.097656 10.097656zm0 0" fill="#ffd664"/><path d="m177.230469 149.214844v30.296875l-10.097657 10.097656h16.15625l10.097657-10.097656v-30.296875zm0 0" fill="#f9c646"/><path d="m142.894531 359.265625-10.097656 10.101563v30.292968h60.589844v-30.292968l-10.097657-10.101563zm0 0" fill="#ffd664"/><path d="m183.289062 359.265625h-16.15625l10.097657 10.101563v30.292968h16.15625v-30.292968zm0 0" fill="#f9c646"/><path d="m142.894531 189.609375h40.394531v169.65625h-40.394531zm0 0" fill="#c9d2e3"/><path d="m328.710938 189.609375-10.101563-10.097656v-30.296875h60.59375v30.296875l-10.097656 10.097656zm0 0" fill="#ffd664"/><path d="m369.105469 359.265625 10.097656 10.101563v30.292968h-60.59375v-30.292968l10.101563-10.101563zm0 0" fill="#ffd664"/><path d="m363.042969 149.214844v30.296875l-10.097657 10.097656h16.160157l10.097656-10.097656v-30.296875zm0 0" fill="#f9c646"/><path d="m369.105469 359.265625h-16.160157l10.097657 10.101563v30.292968h16.160156v-30.292968zm0 0" fill="#f9c646"/><path d="m328.710938 189.609375h40.394531v169.65625h-40.394531zm0 0" fill="#c9d2e3"/><path d="m256 8.074219 134.3125 104.785156h-268.625zm0 0" fill="#ff6969"/><path d="m256 8.074219-11.425781 8.851562 79.972656 62.703125c7.613281 5.894532 3.445313 18.085938-6.183594 18.085938h-177.117187l-19.558594 15.148437h268.625zm0 0" fill="#ea4747"/><path d="m399.398438 149.214844h-286.796876c-5.578124 0-10.101562-4.519532-10.101562-10.097656v-16.160157c0-5.574219 4.523438-10.097656 10.101562-10.097656h286.796876c5.578124 0 10.101562 4.519531 10.101562 10.097656v16.160157c0 5.578124-4.523438 10.097656-10.101562 10.097656zm0 0" fill="#c9d2e3"/><path d="m397.378906 112.859375v14.140625c0 5.574219-4.519531 10.097656-10.097656 10.097656h-284.78125v2.019532c0 5.578124 4.523438 10.097656 10.101562 10.097656h286.796876c5.578124 0 10.101562-4.519532 10.101562-10.097656v-16.15625c0-5.578126-4.523438-10.101563-10.101562-10.101563zm0 0" fill="#adbbd5"/><path d="m457.972656 336.039062v-50.492187c0-15.058594-12.210937-27.265625-27.265625-27.265625-15.058593 0-27.265625 12.207031-27.265625 27.265625v50.492187zm0 0" fill="#ddf5ff"/><path d="m430.707031 258.28125c-2.265625 0-4.460937.28125-6.566406.800781 11.886719 2.9375 20.703125 13.667969 20.703125 26.464844v50.492187h13.128906v-50.492187c0-15.058594-12.207031-27.265625-27.265625-27.265625zm0 0" fill="#c1e9f4"/><path d="m285.789062 210.816406c0 16.175782-13.109374 29.285156-29.285156 29.285156-16.171875 0-29.285156-13.109374-29.285156-29.285156 0-16.171875 13.113281-29.285156 29.285156-29.285156 16.175782 0 29.285156 13.113281 29.285156 29.285156zm0 0" fill="#ddf5ff"/><path d="m271.699219 185.777344c2.695312 4.429687 4.246093 9.628906 4.246093 15.195312 0 16.171875-13.113281 29.285156-29.289062 29.285156-5.5625 0-10.761719-1.550781-15.191406-4.246093 5.136718 8.449219 14.429687 14.089843 25.039062 14.089843 16.175782 0 29.285156-13.109374 29.285156-29.285156 0-10.609375-5.640624-19.902344-14.089843-25.039062zm0 0" fill="#c1e9f4"/><path d="m108.558594 343.613281c4.183594 0 7.574218-3.390625 7.574218-7.574219v-50.492187c0-19.210937-15.628906-34.839844-34.839843-34.839844-19.210938 0-34.839844 15.628907-34.839844 34.839844v50.492187c0 4.183594 3.390625 7.574219 7.574219 7.574219zm-46.957032-58.066406c0-10.859375 8.835938-19.691406 19.691407-19.691406 10.859375 0 19.691406 8.832031 19.691406 19.691406v42.917969h-39.382813zm0 0"/><path d="m511.964844 221.191406-6.183594-63.585937c-.882812-9.101563-8.445312-15.964844-17.589844-15.964844h-71.320312c.117187-.828125.203125-1.664063.203125-2.523437v-16.160157c0-9.742187-7.929688-17.671875-17.675781-17.671875h-6.484376l-132.253906-103.183594c-2.738281-2.1367182-6.582031-2.1367182-9.320312 0l-47.914063 37.382813c-3.300781 2.574219-3.886719 7.332031-1.3125 10.632813 2.570313 3.296874 7.332031 3.882812 10.628907 1.3125l43.257812-33.75 112.289062 87.605468h-224.558593l41.40625-32.261718c3.300781-2.570313 3.890625-7.332032 1.320312-10.632813-2.574219-3.296875-7.332031-3.890625-10.632812-1.316406l-56.738281 44.210937h-6.484376c-9.746093 0-17.675781 7.929688-17.675781 17.675782v16.15625c0 .859374.082031 1.699218.203125 2.523437h-71.320312c-9.144532 0-16.707032 6.863281-17.589844 15.964844l-6.1835938 63.585937c-.2070312 2.128906.4960938 4.242188 1.9296878 5.824219 1.4375 1.582031 3.472656 2.484375 5.609375 2.484375h4.542969v37.546875c0 4.183594 3.390624 7.574219 7.574218 7.574219s7.574219-3.390625 7.574219-7.574219v-37.546875h108.054687v126.628906l-7.878906 7.878906c-1.421875 1.421876-2.21875 3.347657-2.21875 5.359376v22.71875h-12.621094c-4.183593 0-7.574218 3.390624-7.574218 7.574218v28.78125h-77.761719v-126.027344c0-4.183593-3.390625-7.574218-7.574219-7.574218s-7.574218 3.390625-7.574218 7.574218v169.957032c0 4.183594 3.390624 7.574218 7.574218 7.574218h472.617188c4.179687 0 7.570312-3.390624 7.570312-7.574218v-89.167969c0-4.183594-3.390625-7.574219-7.570312-7.574219-4.183594 0-7.574219 3.390625-7.574219 7.574219v45.238281h-77.761719v-28.78125c0-4.183594-3.390625-7.574218-7.574218-7.574218h-12.621094v-22.71875c0-2.011719-.796875-3.9375-2.21875-5.359376l-7.882813-7.878906v-126.628906h108.058594v118.335938c0 4.183593 3.390625 7.574218 7.574219 7.574218 4.179687 0 7.570312-3.390625 7.570312-7.574218v-118.335938h4.546875c2.136719 0 4.171875-.902344 5.605469-2.484375 1.4375-1.582031 2.140625-3.695313 1.933594-5.824219zm-401.890625-82.074218v-16.160157c0-1.390625 1.132812-2.523437 2.527343-2.523437h277.710938.007812 9.082032c1.390625 0 2.523437 1.132812 2.523437 2.523437v16.160157c0 1.390624-1.132812 2.523437-2.523437 2.523437h-286.800782c-1.394531 0-2.527343-1.132813-2.527343-2.523437zm186.824219 252.96875v-84.4375c0-9.246094-4.578126-17.855469-12.246094-23.023438l-13.191406-8.898438c-9.378907-6.320312-21.519532-6.351562-30.929688-.078124l-13.066406 8.707031c-7.742188 5.164062-12.363282 13.800781-12.363282 23.109375v84.621094h-14.140624v-22.722657c0-2.007812-.796876-3.933593-2.214844-5.355469l-7.882813-7.878906v-163.382812l7.882813-7.878906c1.417968-1.417969 2.214844-3.347657 2.214844-5.355469v-22.722657h110.078124v22.722657c0 2.007812.796876 3.933593 2.214844 5.355469l7.882813 7.882812v163.378906l-7.882813 7.882813c-1.417968 1.417969-2.214844 3.347656-2.214844 5.355469v22.722656h-14.140624zm-66.652344 0v-84.621094c0-4.230469 2.101562-8.15625 5.621094-10.503906l13.066406-8.707032c4.277344-2.851562 9.796875-2.839844 14.058594.035156l13.191406 8.894532c3.484375 2.351562 5.566406 6.261718 5.566406 10.46875v84.4375h-51.503906zm-44.429688-235.296876v19.585938l-5.664062 5.660156h-34.121094l-5.660156-5.660156v-19.585938zm-35.347656 40.394532h25.246094v154.507812h-25.246094zm185.816406 0h25.246094v154.507812h-25.246094zm35.34375-20.808594-5.664062 5.660156h-34.117188l-5.664062-5.660156v-19.585938h45.445312zm-351.9375 37.976562h-3.773437l5.375-55.28125c.128906-1.300781 1.207031-2.28125 2.515625-2.28125h101.414062v22.722657c0 2.007812.796875 3.933593 2.21875 5.355469l7.878906 7.878906v21.605468zm120.679688 158.152344 5.660156-5.664062h34.121094l5.664062 5.664062v19.582032h-45.445312zm-113.105469 71.085938h57.5625v21.207031h-57.5625zm457.46875 21.207031h-57.5625v-21.207031h57.5625zm-72.710937 0h-312.046876v-21.207031h312.046876zm-20.199219-36.355469h-271.652344v-21.207031h12.613281.011719 156.519531.007813.011719 102.492187v21.207031zm-65.640625-36.355468v-19.582032l5.664062-5.664062h34.117188l5.664062 5.664062v19.582032zm50.492187-177.734376v-21.605468l7.882813-7.878906c1.421875-1.421876 2.21875-3.347657 2.21875-5.355469v-22.722657h101.414062c1.304688 0 2.386719.980469 2.511719 2.28125l5.375 55.28125zm0 0"/><path d="m395.867188 285.546875v50.492187c0 4.183594 3.390624 7.574219 7.574218 7.574219h54.53125c4.183594 0 7.574219-3.390625 7.574219-7.574219v-50.492187c0-19.210937-15.628906-34.839844-34.839844-34.839844-19.210937 0-34.839843 15.628907-34.839843 34.839844zm54.53125 0v42.917969h-39.386719v-42.917969c0-10.859375 8.835937-19.691406 19.691406-19.691406 10.859375 0 19.695313 8.832031 19.695313 19.691406zm0 0"/><path d="m256.503906 173.957031c-20.324218 0-36.859375 16.535157-36.859375 36.859375 0 20.324219 16.535157 36.859375 36.859375 36.859375 20.324219 0 36.859375-16.535156 36.859375-36.859375 0-20.324218-16.535156-36.859375-36.859375-36.859375zm0 58.574219c-11.972656 0-21.710937-9.742188-21.710937-21.714844s9.738281-21.710937 21.710937-21.710937 21.710938 9.738281 21.710938 21.710937-9.738282 21.714844-21.710938 21.714844zm0 0"/></svg>