<svg height="512pt" viewBox="0 -34 512 512" width="512pt" xmlns="http://www.w3.org/2000/svg"><path d="m38.878906 26.761719h-31.304687v337.292969h248.425781v-320.125h-44.433594l-16.160156-17.167969zm0 0" fill="#7ae57d"/><path d="m238.832031 43.929688v292.859374c0 5.578126-4.519531 10.097657-10.097656 10.097657h-221.160156v17.167969h248.425781v-320.125zm0 0" fill="#66d166"/><path d="m256 332.75-16.402344-17.367188c-11.445312-12.121093-27.378906-18.988281-44.050781-18.988281h-156.667969v-288.820312h156.667969c16.671875 0 32.605469 6.867187 44.050781 18.988281l16.402344 17.367188zm0 0" fill="#ddf5ff"/><path d="m239.84375 315.640625 16.15625 17.109375v-288.820312l-16.15625-17.109376zm0 0" fill="#c1e9f4"/><path d="m38.878906 296.394531v36.355469h217.121094l-16.402344-17.367188c-11.445312-12.121093-27.378906-18.988281-44.050781-18.988281zm0 0" fill="#c1e9f4"/><path d="m473.121094 26.761719h31.304687v337.292969h-248.425781v-320.125h44.433594l16.15625-17.167969zm0 0" fill="#7ae57d"/><path d="m488.269531 26.761719v310.027343c0 5.578126-4.523437 10.097657-10.101562 10.097657h-222.167969v17.167969h248.425781v-337.292969zm0 0" fill="#66d166"/><path d="m256 332.75 16.402344-17.367188c11.445312-12.121093 27.378906-18.988281 44.050781-18.988281h156.667969v-288.820312h-156.667969c-16.671875 0-32.605469 6.867187-44.050781 18.988281l-16.402344 17.367188zm0 0" fill="#ddf5ff"/><path d="m457.972656 7.574219h15.148438v288.820312h-15.148438zm0 0" fill="#c1e9f4"/><path d="m473.121094 296.394531v36.355469h-217.121094l16.402344-17.367188c11.445312-12.121093 27.378906-18.988281 44.050781-18.988281zm0 0" fill="#c1e9f4"/><path d="m235.804688 257.011719h40.390624v178.746093h-40.390624zm0 0" fill="#636363"/><path d="m276.195312 257.011719h-40.394531v32.640625c6.570313 1.109375 13.316407 1.691406 20.199219 1.691406 1.351562 0 2.695312-.039062 4.039062-.082031v144.496093h16.15625zm0 0" fill="#494949"/><path d="m356.984375 170.160156c0 55.773438-45.210937 100.988282-100.984375 100.988282s-100.984375-45.214844-100.984375-100.988282c0-55.769531 45.210937-100.984375 100.984375-100.984375s100.984375 45.214844 100.984375 100.984375zm0 0" fill="#636363"/><path d="m321.089844 92.957031c14.832031 17.578125 23.777344 40.285157 23.777344 65.085938 0 55.773437-45.210938 100.988281-100.984376 100.988281-24.800781 0-47.511718-8.945312-65.089843-23.78125 18.527343 21.949219 46.234375 35.898438 77.207031 35.898438 55.773438 0 100.984375-45.214844 100.984375-100.988282 0-30.96875-13.945313-58.679687-35.894531-77.203125zm0 0" fill="#494949"/><path d="m326.691406 170.160156c0 39.042969-31.652344 70.691406-70.691406 70.691406s-70.691406-31.648437-70.691406-70.691406c0-39.039062 31.652344-70.6875 70.691406-70.6875s70.691406 31.648438 70.691406 70.6875zm0 0" fill="#8db0ff"/><path d="m504.425781 262.3125c4.183594 0 7.574219-3.390625 7.574219-7.574219v-227.976562c0-4.183594-3.390625-7.574219-7.574219-7.574219h-23.730469v-11.613281c0-4.183594-3.390624-7.574219-7.574218-7.574219h-156.671875c-18.667969 0-36.726563 7.785156-49.554688 21.359375l-10.894531 11.539063-10.894531-11.542969c-12.828125-13.570313-30.890625-21.355469-49.554688-21.355469h-156.671875c-4.183594 0-7.574218 3.390625-7.574218 7.574219v11.613281h-23.730469c-4.183594 0-7.574219 3.390625-7.574219 7.574219v337.292969c0 4.183593 3.390625 7.574218 7.574219 7.574218h220.65625v14.074219c0 4.183594 3.390625 7.574219 7.574219 7.574219 4.179687 0 7.574218-3.390625 7.574218-7.574219v-107.71875c4.140625.480469 8.351563.738281 12.621094.738281s8.480469-.257812 12.621094-.738281v150.199219h-25.246094v-7.039063c0-4.183593-3.390625-7.574219-7.574219-7.574219-4.183593 0-7.574219 3.390626-7.574219 7.574219v14.613281c0 4.179688 3.390626 7.570313 7.574219 7.570313h40.394531c4.183594 0 7.574219-3.390625 7.574219-7.570313v-64.128906h220.65625c4.183594 0 7.574219-3.390625 7.574219-7.574218v-74.097657c0-4.183593-3.390625-7.574219-7.574219-7.574219-4.183593 0-7.574219 3.390626-7.574219 7.574219v66.523438h-213.082031v-16.15625h189.351563c4.183594 0 7.574218-3.390625 7.574218-7.574219v-298.414062h16.15625v220.402343c0 4.183594 3.390626 7.574219 7.574219 7.574219zm-457.972656 41.65625h149.097656c11.894531 0 23.371094 3.996094 32.679688 11.289062v9.917969h-181.777344zm181.777344-6.804688c-9.949219-5.4375-21.164063-8.34375-32.679688-8.34375h-149.097656v-200.667968c0-4.183594-3.390625-7.574219-7.574219-7.574219s-7.574218 3.390625-7.574218 7.574219v244.597656c0 4.183594 3.390624 7.574219 7.574218 7.574219h189.351563v16.15625h-213.082031v-322.144531h16.15625v18.238281c0 4.183593 3.390624 7.574219 7.574218 7.574219s7.574219-3.390626 7.574219-7.574219v-37.425781h149.097656c14.519531 0 28.566407 6.054687 38.542969 16.609374l14.332031 15.179688v14.929688c-56.339843 3.902343-100.984375 50.980468-100.984375 108.292968 0 50.265625 34.339844 92.652344 80.789063 104.953125zm-65.640625-127.003906c0-51.507812 41.902344-93.410156 93.410156-93.410156s93.410156 41.902344 93.410156 93.410156c0 51.511719-41.902344 93.414063-93.410156 93.414063s-93.410156-41.902344-93.410156-93.414063zm201.96875 0c0-57.3125-44.644532-104.386718-100.984375-108.289062v-14.929688l14.332031-15.179687c9.976562-10.558594 24.027344-16.613281 38.542969-16.613281h149.097656v273.671874h-149.097656c-11.515625 0-22.730469 2.90625-32.679688 8.34375v-22.046874c46.449219-12.300782 80.789063-54.691407 80.789063-104.957032zm-80.789063 155.015625v-9.917969c9.308594-7.292968 20.785157-11.289062 32.679688-11.289062h149.097656v21.207031zm0 0"/><path d="m256 91.898438c-43.15625 0-78.265625 35.109374-78.265625 78.261718 0 43.15625 35.109375 78.265625 78.265625 78.265625s78.265625-35.109375 78.265625-78.265625c0-43.152344-35.109375-78.261718-78.265625-78.261718zm0 141.378906c-34.804688 0-63.117188-28.3125-63.117188-63.117188 0-34.800781 28.3125-63.113281 63.117188-63.113281s63.117188 28.3125 63.117188 63.113281c0 34.804688-28.3125 63.117188-63.117188 63.117188zm0 0"/></svg>