<svg height="512pt" viewBox="-56 0 512 512.005" width="512pt" xmlns="http://www.w3.org/2000/svg"><path d="m115.632812 130.777344h20.195313v-38.375h-20.195313c-5.578124 0-10.097656 4.519531-10.097656 10.097656v18.179688c0 5.578124 4.519532 10.097656 10.097656 10.097656zm0 0" fill="#feccc1"/><path d="m285.289062 130.777344h-20.199218v-38.375h20.199218c5.578126 0 10.097657 4.519531 10.097657 10.097656v18.179688c0 5.578124-4.519531 10.097656-10.097657 10.097656zm0 0" fill="#f9b3a7"/><path d="m200.460938 233.78125h-40.394532l-67.488281 18.984375c-17.421875 4.898437-29.457031 20.789063-29.457031 38.882813v55.238281h274.679687v-55.238281c0-18.09375-12.035156-33.984376-29.457031-38.882813l-67.488281-18.984375zm0 0" fill="#ddf5ff"/><path d="m216.617188 290.335938v56.550781h-31.304688v-56.550781zm0 0" fill="#ff6969"/><path d="m308.34375 252.765625c17.421875 4.898437 29.457031 20.789063 29.457031 38.882813v55.238281h-96.945312l30.050781-104.652344zm0 0" fill="#636363"/><path d="m308.34375 252.765625-10.1875-2.867187c4.652344 6.628906 7.332031 14.667968 7.332031 23.203124v73.785157h32.3125v-55.238281c0-18.09375-12.035156-33.984376-29.457031-38.882813zm0 0" fill="#494949"/><path d="m92.578125 252.765625c-17.421875 4.898437-29.457031 20.789063-29.457031 38.882813v55.238281h95.933594l-29.039063-104.652344zm0 0" fill="#636363"/><path d="m176.222656 192.378906v26.257813l24.238282 24.234375 24.238281-24.234375v-26.257813zm0 0" fill="#f9b3a7"/><path d="m200.460938 81.292969h-64.632813v50.492187c0 35.695313 28.9375 64.632813 64.632813 64.632813 35.695312 0 64.628906-28.9375 64.628906-64.632813v-50.492187zm0 0" fill="#feccc1"/><path d="m238.835938 81.292969v50.492187c0 31.199219-22.101563 57.230469-51.503907 63.296875 4.238281.875 8.628907 1.335938 13.128907 1.335938 35.695312 0 64.628906-28.9375 64.628906-64.632813v-50.492187zm0 0" fill="#f9b3a7"/><path d="m169.867188 267.917969 30.59375-25.046875-24.238282-24.234375-22.214844 16.15625zm0 0" fill="#c1e9f4"/><path d="m231.054688 267.917969-30.59375-25.046875 24.238281-24.234375 22.214843 16.15625zm0 0" fill="#c1e9f4"/><path d="m200.460938 290.335938h16.15625l14.4375-22.417969-30.59375-25.046875-30.59375 25.046875 15.445312 22.417969zm0 0" fill="#ff6969"/><path d="m186.324219 7.574219h28.273437c11.15625 0 20.199219 9.042969 20.199219 20.195312v44.433594c0 11.15625-9.042969 20.199219-20.199219 20.199219h-78.769531v-34.335938c0-27.886718 22.605469-50.492187 50.496094-50.492187zm0 0" fill="#ffd664"/><path d="m217.628906 7.824219v55.292969c0 5.574218-4.519531 10.097656-10.097656 10.097656h-71.703125v19.1875h78.769531c11.15625 0 20.199219-9.042969 20.199219-20.199219v-44.433594c0-10.121093-7.457031-18.480469-17.167969-19.945312zm0 0" fill="#f9c646"/><path d="m244.894531 27.769531c-5.578125 0-10.097656 4.523438-10.097656 10.101563v34.332031c0 11.15625 9.042969 20.199219 20.195313 20.199219h10.097656v-44.433594c0-11.15625-9.039063-20.199219-20.195313-20.199219zm0 0" fill="#f9c646"/><path d="m383.246094 387.28125h-365.570313c-5.578125 0-10.097656-4.519531-10.097656-10.097656v-20.199219c0-5.574219 4.519531-10.097656 10.097656-10.097656h365.570313c5.578125 0 10.097656 4.519531 10.097656 10.097656v20.199219c0 5.578125-4.519531 10.097656-10.097656 10.097656zm0 0" fill="#ff933b"/><path d="m383.246094 346.886719h-20.199219c5.578125 0 10.101563 4.523437 10.101563 10.101562v20.195313c0 5.578125-4.523438 10.097656-10.101563 10.097656h20.199219c5.578125 0 10.097656-4.519531 10.097656-10.097656v-20.195313c0-5.578125-4.519531-10.101562-10.097656-10.101562zm0 0" fill="#f27d27"/><path d="m39.890625 387.28125h321.136719v117.144531h-321.136719zm0 0" fill="#ff933b"/><path d="m39.890625 387.28125v20.199219h291.851563c5.578124 0 10.097656 4.519531 10.097656 10.097656v86.847656h19.1875v-117.144531zm0 0" fill="#f27d27"/><path d="m111.59375 186.320312c0 11.710938-9.496094 21.207032-21.207031 21.207032-11.714844 0-21.207031-9.496094-21.207031-21.207032 0-11.710937 9.492187-21.207031 21.207031-21.207031 11.710937 0 21.207031 9.496094 21.207031 21.207031zm0 0" fill="#8db0ff"/><path d="m383.246094 339.3125h-37.871094v-10.9375c0-4.183594-3.390625-7.574219-7.574219-7.574219-4.183593 0-7.574219 3.390625-7.574219 7.574219v10.9375h-79.316406l25.195313-87.742188 30.1875 8.488282c14.09375 3.964844 23.933593 16.953125 23.933593 31.589844v1.148437c0 4.183594 3.390626 7.574219 7.574219 7.574219 4.183594 0 7.574219-3.390625 7.574219-7.574219v-1.148437c0-21.394532-14.382812-40.378907-34.980469-46.171876l-37.320312-10.496093c-.027344-.007813-.050781-.019531-.078125-.027344-.035156-.007813-.066406-.011719-.097656-.023437l-21.125-5.9375c-.132813-.113282-.265626-.222657-.40625-.324219l-19.097657-13.890625v-18.191406c22.042969-10.863282 37.765625-32.640626 40.082031-58.234376h12.9375c9.746094 0 17.671876-7.929687 17.671876-17.675781v-18.175781c0-9.746094-7.925782-17.675781-17.671876-17.675781h-12.625v-36.855469c0-15.3125-12.457031-27.773438-27.769531-27.773438-1.191406 0-2.355469.125-3.484375.351563-3.1875-11.820313-14-20.546875-26.8125-20.546875h-28.273437c-32.019531 0-58.070313 26.046875-58.070313 58.066406v26.761719h-12.621094c-9.746093 0-17.671874 7.929687-17.671874 17.675781v18.175782c0 9.746093 7.925781 17.671874 17.671874 17.671874h12.933594c2.320313 25.597657 18.042969 47.371094 40.085938 58.238282v18.191406l-19.101563 13.890625c-.140625.101563-.273437.210937-.402343.320313l-21.089844 5.933593c-.019532.003907-.042969.007813-.066406.015625-.023438.003906-.046876.015625-.074219.023438l-37.390625 10.515625c-20.597656 5.792969-34.980469 24.777343-34.980469 46.171875v1.148437c0 4.183594 3.390625 7.574219 7.574219 7.574219 4.179687 0 7.574218-3.390625 7.574218-7.574219v-1.148437c0-14.636719 9.839844-27.625 23.933594-31.589844l30.125-8.472656 24.339844 87.726562h-78.398438v-10.9375c0-4.183594-3.394531-7.574218-7.574218-7.574218-4.183594 0-7.574219 3.390624-7.574219 7.574218v10.9375h-16.160156v-68.121094c0-22.707031 10.269531-43.746093 28.167969-57.714843l5.4375-4.246094c4.835937 3.679687 10.863281 5.871094 17.394531 5.871094 15.867187 0 28.78125-12.910157 28.78125-28.78125 0-15.871094-12.914063-28.78125-28.78125-28.78125-15.871094 0-28.78125 12.910156-28.78125 28.78125 0 3.859375.765625 7.539062 2.152343 10.90625l-5.523437 4.308593c-21.605469 16.859376-33.996094 42.25-33.996094 69.65625v68.121094h-6.5625c-9.746093 0-17.67187475 7.929688-17.67187475 17.675782v20.195312c0 9.746094 7.92578175 17.671875 17.67187475 17.671875h14.644531v109.570313c0 4.183593 3.390626 7.574218 7.570313 7.574218h321.136719c4.183594 0 7.574218-3.390625 7.574218-7.574218v-109.570313h14.644532c9.746094 0 17.671875-7.925781 17.671875-17.671875v-20.195312c0-9.75-7.925781-17.679688-17.671875-17.679688zm-292.859375-166.625c7.515625 0 13.632812 6.113281 13.632812 13.632812 0 7.515626-6.117187 13.632813-13.632812 13.632813-7.519531 0-13.632813-6.117187-13.632813-13.632813 0-7.519531 6.113282-13.632812 13.632813-13.632812zm144.761719 166.625h-10.957032v-46.75l13.230469-20.542969c.011719-.011719.015625-.027343.027344-.042969.035156-.050781.0625-.109374.09375-.167968.109375-.175782.210937-.359375.300781-.539063.011719-.027343.03125-.054687.042969-.082031l12.816406-26.761719 10.820313 3.042969zm-34.6875-86.652344 20.566406 16.839844-8.539063 13.261719h-23.195312l-9.234375-13.398438zm-7.574219 45.25h16.15625v41.402344h-16.15625zm35.503906-41.964844-16.65625-13.632812 13.742187-13.746094 11.882813 8.644532zm59.421875-153.445312v18.179688c0 1.390624-1.132812 2.523437-2.523438 2.523437h-12.625v-23.226563h12.625c1.390626 0 2.523438 1.132813 2.523438 2.523438zm-42.917969-67.15625c6.960938 0 12.621094 5.664062 12.621094 12.625v36.859375h-2.523437c-6.960938 0-12.621094-5.664063-12.621094-12.625v-34.332031c0-1.394532 1.128906-2.527344 2.523437-2.527344zm-101.492187 22.722656c0-23.664062 19.253906-42.917968 42.921875-42.917968h28.273437c6.960938 0 12.625 5.664062 12.625 12.621093v44.433594c0 6.960937-5.664062 12.625-12.625 12.625h-71.195312zm-30.292969 62.613282v-18.179688c0-1.394531 1.128906-2.523438 2.523437-2.523438h12.621094v23.226563h-12.621094c-1.394531 0-2.523437-1.132813-2.523437-2.523437zm30.292969 11.105468v-31.808594h71.195312c7.953125 0 15.128906-3.367187 20.199219-8.742187 5.066406 5.375 12.242187 8.742187 20.195313 8.742187h2.523437v31.808594c0 31.464844-25.59375 57.058594-57.054687 57.058594-31.460938 0-57.058594-25.59375-57.058594-57.058594zm57.058594 72.207032c5.734374 0 11.308593-.691407 16.664062-1.960938v13.464844l-16.664062 16.664062-16.664063-16.664062v-13.464844c5.355469 1.269531 10.925781 1.960938 16.664063 1.960938zm-25.015626 24.574218 13.742188 13.746094-16.65625 13.632812-8.96875-18.734374zm-36.113281 18.917969 10.886719-3.058594 12.816406 26.761719c.023438.050781.050782.09375.074219.140625.082031.160156.171875.320313.265625.480469.050781.082031.101562.167968.15625.25.03125.050781.0625.105468.097656.15625l14.109375 20.476562v46.621094h-12.925781zm246.4375 129.699219c0 1.390625-1.132812 2.523437-2.523437 2.523437h-66.082032c-4.183593 0-7.574218 3.390625-7.574218 7.574219s3.390625 7.574219 7.574218 7.574219h36.289063v101.996093h-305.988281v-101.996093h234.289062c4.183594 0 7.574219-3.390625 7.574219-7.574219s-3.390625-7.574219-7.574219-7.574219h-264.078125c-1.394531 0-2.523437-1.132812-2.523437-2.523437v-20.199219c0-1.390625 1.128906-2.523437 2.523437-2.523437h141.351563c.007812 0 .015625.003906.023437.003906.011719 0 .019531-.003906.03125-.003906h81.75c.007813 0 .015625.003906.027344.003906.007813 0 .015625-.003906.023437-.003906h142.363282c1.390625 0 2.523437 1.132812 2.523437 2.523437zm0 0"/></svg>