<svg height="512pt" viewBox="-42 0 512 512.002" width="512pt" xmlns="http://www.w3.org/2000/svg"><path d="m335.78125 195.40625 6.058594 160.570312h-256.503906l6.058593-160.570312zm0 0" fill="#ff933b"/><path d="m341.839844 355.976562-6.058594-160.570312h-236.78125c5.609375 58.289062 54.855469 104.015625 114.585938 104.015625 33.742187 0 64.136718-14.589844 85.210937-37.792969 6.054687-6.671875 17.167969-2.539062 17.507813 6.464844l3.316406 87.878906h22.21875zm0 0" fill="#f27d27"/><path d="m152.996094 337.796875-86.253906 23.960937c-34.96875 9.710938-59.167969 41.550782-59.167969 77.839844v64.828125h412.023437v-64.828125c0-36.289062-24.199218-68.128906-59.164062-77.839844l-86.253906-23.960937zm0 0" fill="#ddf5ff"/><path d="m360.433594 361.757812-56.996094-15.832031-30.269531 158.5h146.429687v-64.828125c0-36.289062-24.199218-68.128906-59.164062-77.839844zm0 0" fill="#636363"/><path d="m360.433594 361.757812-6.535156-1.816406c17.554687 15 28.335937 37.21875 28.335937 61.429688v83.054687h37.363281v-64.828125c0-36.289062-24.199218-68.128906-59.164062-77.839844zm0 0" fill="#494949"/><path d="m66.742188 361.757812 56.996093-15.832031 30.265625 158.5h-146.429687v-64.828125c0-36.289062 24.199219-68.128906 59.167969-77.839844zm0 0" fill="#636363"/><path d="m249.941406 337.796875-36.355468 46.453125-36.355469-46.453125v-82.808594h72.710937zm0 0" fill="#f9b3a7"/><path d="m308.515625 111.589844h26.253906v40.394531h-26.253906zm0 0" fill="#f27d27"/><path d="m334.769531 111.589844v-104.015625h-242.367187v104.015625zm0 0" fill="#636363"/><path d="m315.582031 7.574219v63.621093c0 11.15625-9.042969 20.195313-20.195312 20.195313h-202.984375v20.199219h242.367187v-104.015625zm0 0" fill="#494949"/><path d="m92.402344 111.589844h26.257812v40.394531h-26.257812zm0 0" fill="#ff933b"/><path d="m213.585938 111.589844h-94.925782v72.710937c0 52.425781 42.5 94.925781 94.925782 94.925781 52.429687 0 94.929687-42.5 94.929687-94.925781v-72.710937zm0 0" fill="#feccc1"/><path d="m280.238281 111.589844v72.710937c0 47.621094-35.066406 87.046875-80.789062 93.875 4.613281.691407 9.332031 1.050781 14.136719 1.050781 52.429687 0 94.929687-42.5 94.929687-94.925781v-72.710937zm0 0" fill="#f9b3a7"/><path d="m103.511719 199.445312h20.199219v-54.53125h-20.199219c-11.15625 0-20.195313 9.042969-20.195313 20.199219v14.136719c0 11.15625 9.042969 20.195312 20.195313 20.195312zm0 0" fill="#feccc1"/><path d="m323.660156 199.445312h-20.195312v-54.53125h20.195312c11.15625 0 20.199219 9.042969 20.199219 20.199219v14.136719c0 11.15625-9.042969 20.195312-20.199219 20.195312zm0 0" fill="#f9b3a7"/><path d="m402.429688 113.609375c0 10.039063-8.136719 18.175781-18.175782 18.175781-10.039062 0-18.179687-8.136718-18.179687-18.175781s8.140625-18.175781 18.179687-18.175781c10.039063 0 18.175782 8.136718 18.175782 18.175781zm0 0" fill="#ffd664"/><path d="m419.597656 453.890625c4.183594 0 7.574219-3.390625 7.574219-7.574219v-6.71875c0-39.542968-26.609375-74.554687-64.710937-85.136718l-13.238282-3.679688-5.742187-152.105469c4.914062-5.011719 7.953125-11.867187 7.953125-19.425781v-14.136719c0-8.125-3.507813-15.449219-9.089844-20.53125v-129.433593h34.335938v73.847656c-10.515626 3.242187-18.179688 13.050781-18.179688 24.613281s7.664062 21.371094 18.179688 24.613281v18.808594c0 4.183594 3.390624 7.574219 7.574218 7.574219 4.179688 0 7.570313-3.390625 7.570313-7.574219v-18.808594c10.515625-3.242187 18.179687-13.050781 18.179687-24.613281s-7.664062-21.371094-18.179687-24.613281v-73.847656h7.574219c4.183593 0 7.574218-3.390626 7.574218-7.574219 0-4.183594-3.386718-7.574219-7.570312-7.574219h-371.628906c-4.183594 0-7.574219 3.390625-7.574219 7.574219 0 4.183593 3.390625 7.574219 7.574219 7.574219h57.054687v17.292968c0 4.183594 3.394531 7.574219 7.574219 7.574219 4.183594 0 7.574218-3.390625 7.574218-7.574219v-17.292968h227.21875v88.867187h-227.21875v-36.355469c0-4.183594-3.390624-7.574218-7.574218-7.574218-4.179688 0-7.574219 3.390624-7.574219 7.574218v76.921875c-5.578125 5.082031-9.085937 12.40625-9.085937 20.53125v14.136719c0 7.558594 3.035156 14.414062 7.949218 19.425781l-5.742187 152.109375-13.234375 3.675782c-38.101563 10.585937-64.714844 45.59375-64.714844 85.140624v6.714844c0 4.183594 3.390625 7.574219 7.574219 7.574219 4.183593 0 7.574219-3.390625 7.574219-7.574219v-6.714844c0-32.765624 22.050781-61.777343 53.621093-70.542968l49.070313-13.632813 27.007812 141.425781h-52.949218v-23.730468c0-4.183594-3.390626-7.574219-7.574219-7.574219-4.183594 0-7.574219 3.390625-7.574219 7.574219v23.730468h-61.601562v-15.1875c0-4.183593-3.390626-7.574218-7.574219-7.574218-4.179688 0-7.57031275 3.390625-7.57031275 7.574218v22.761719c0 4.183594 3.39062475 7.574219 7.57031275 7.574219h146.390625c.011718 0 .019531.003906.03125.003906.011718 0 .023437-.003906.03125-.003906h119.121094c.007812 0 .019531.003906.03125.003906.007812 0 .019531-.003906.03125-.003906h146.386718c4.183594 0 7.574219-3.390625 7.574219-7.574219v-22.761719c0-4.183593-3.390625-7.574218-7.574219-7.574218s-7.574218 3.390625-7.574218 7.574218v15.1875h-61.597657v-23.730468c0-4.183594-3.394531-7.574219-7.574219-7.574219-4.183593 0-7.574218 3.390625-7.574218 7.574219v23.730468h-52.949219l27.007813-141.425781 49.070312 13.632813c31.570312 8.765625 53.621094 37.777344 53.621094 70.542968v6.714844c-.003906 4.183594 3.386718 7.574219 7.570312 7.574219zm-35.34375-329.675781c-5.847656 0-10.605468-4.757813-10.605468-10.605469s4.757812-10.605469 10.605468-10.605469 10.601563 4.757813 10.601563 10.605469-4.753907 10.605469-10.601563 10.605469zm-108.046875 206.285156c-.660156-.183594-1.34375-.277344-2.027343-.277344h-16.664063v-53.324218c27.980469-13.328126 49.007813-38.96875 56.03125-69.878907h10.113281c1.695313 0 3.351563-.160156 4.960938-.449219l5.28125 139.957032zm-91.402343-47.820312c9.136718 2.679687 18.792968 4.121093 28.78125 4.121093 9.988281 0 19.648437-1.441406 28.78125-4.121093v52.507812l-28.78125 36.773438-28.78125-36.773438zm151.480468-117.566407v14.136719c0 6.960938-5.664062 12.621094-12.625 12.621094h-7.570312v-39.382813h7.570312c6.960938 0 12.625 5.664063 12.625 12.625zm-9.089844-27.539062c-1.160156-.148438-2.335937-.234375-3.535156-.234375h-7.570312v-18.175782h11.105468zm-26.253906 7.339843v39.386719c0 48.167969-39.1875 87.351563-87.355468 87.351563-48.164063 0-87.351563-39.183594-87.351563-87.351563v-65.136719h174.707031zm-200.964844-25.75h11.109376v18.175782h-7.574219c-1.199219 0-2.375.085937-3.535157.234375zm11.109376 65.136719v7.570313h-7.574219c-6.960938 0-12.621094-5.660156-12.621094-12.621094v-14.136719c0-6.960937 5.660156-12.625 12.621094-12.625h7.574219zm-12.535157 22.269531c1.613281.289063 3.269531.449219 4.960938.449219h10.117187c7.019532 30.90625 28.046875 56.550781 56.027344 69.878907v53.324218h-16.664062c-.683594 0-1.363282.09375-2.023438.277344l-57.699219 16.027344zm168.351563 290.28125h-106.632813l-27.785156-145.496093 21.542969-5.984375h19.515625l34.078125 43.546875c1.4375 1.835937 3.636718 2.90625 5.964844 2.90625 2.328124 0 4.527343-1.070313 5.964843-2.90625l34.078125-43.546875h19.515625l21.542969 5.984375zm0 0"/></svg>