<svg height="511pt" viewBox="1 -84 511.999 511" width="511pt" xmlns="http://www.w3.org/2000/svg"><path d="m484.230469 335.269531h-456.460938c-11.152343 0-20.195312-9.042969-20.195312-20.199219v-286.800781c0-11.152343 9.042969-20.195312 20.195312-20.195312h456.457031c11.15625 0 20.199219 9.042969 20.199219 20.195312v286.800781c0 11.15625-9.042969 20.199219-20.195312 20.199219zm0 0" fill="#7ae57d"/><path d="m485.238281 8.125v290.789062c0 11.15625-9.042969 20.195313-20.199219 20.195313h-457.058593c1.871093 9.21875 10.019531 16.160156 19.792969 16.160156h456.457031c11.152343 0 20.195312-9.042969 20.195312-20.199219v-286.800781c0-10.8125-8.503906-19.613281-19.1875-20.144531zm0 0" fill="#66d166"/><path d="m41.910156 42.410156h428.179688v258.523438h-428.179688zm0 0" fill="#ddf5ff"/><path d="m453.933594 42.410156v242.367188h-412.023438v16.15625h428.179688v-258.523438zm0 0" fill="#c1e9f4"/><path d="m163.34375 269.125h89.878906v-37.367188c0-33.464843-27.128906-60.589843-60.589844-60.589843h-58.574218c-33.464844 0-60.589844 27.125-60.589844 60.589843v37.367188zm0 0" fill="#ffd664"/><path d="m197.621094 171.386719c17.019531 10.730469 28.335937 29.679687 28.335937 51.28125v46.457031h27.265625v-37.367188c0-31.78125-24.472656-57.828124-55.601562-60.371093zm0 0" fill="#f9c646"/><path d="m205.757812 116.632812c0-23.425781-18.988281-42.414062-42.414062-42.414062-23.421875 0-42.414062 18.988281-42.414062 42.414062v22.21875c0 23.425782 18.992187 42.414063 42.414062 42.414063 23.425781 0 42.414062-18.988281 42.414062-42.414063zm0 0" fill="#feccc1"/><path d="m163.34375 74.21875c-2.941406 0-5.8125.300781-8.582031.871094 19.308593 3.96875 33.828125 21.058594 33.828125 41.542968v22.21875c0 20.484376-14.519532 37.574219-33.828125 41.542969 2.769531.570313 5.640625.871094 8.582031.871094 23.425781 0 42.414062-18.988281 42.414062-42.414063v-22.21875c0-23.421874-18.988281-42.414062-42.414062-42.414062zm0 0" fill="#f9b3a7"/><path d="m322.398438 106.03125 72.710937 36.355469-72.710937 36.355469zm0 0" fill="#ff6969"/><path d="m484.230469.5h-265.59375c-4.183594 0-7.574219 3.390625-7.574219 7.574219 0 4.183593 3.390625 7.574219 7.574219 7.574219h265.59375c6.960937 0 12.621093 5.660156 12.621093 12.621093v286.800781c0 6.960938-5.664062 12.625-12.621093 12.625h-456.460938c-6.960937 0-12.621093-5.664062-12.621093-12.625v-286.800781c0-6.960937 5.664062-12.621093 12.621093-12.621093h155.519531c4.183594 0 7.574219-3.390626 7.574219-7.574219 0-4.183594-3.390625-7.574219-7.574219-7.574219h-155.519531c-15.3125 0-27.769531 12.457031-27.769531 27.769531v286.800781c0 15.316407 12.457031 27.773438 27.769531 27.773438h456.457031c15.316407 0 27.773438-12.460938 27.773438-27.773438v-286.800781c0-15.3125-12.457031-27.769531-27.769531-27.769531zm0 0"/><path d="m65.894531 231.757812v37.367188c0 4.179688 3.390625 7.574219 7.574219 7.574219h179.753906c4.183594 0 7.574219-3.394531 7.574219-7.574219v-37.367188c0-33.015624-23.601563-60.621093-54.816406-66.84375 4.660156-7.59375 7.351562-16.519531 7.351562-26.0625v-22.21875c0-27.5625-22.425781-49.988281-49.988281-49.988281s-49.988281 22.425781-49.988281 49.988281v22.21875c0 9.542969 2.691406 18.46875 7.351562 26.0625-31.214843 6.222657-54.8125 33.828126-54.8125 66.84375zm62.609375-115.125c0-19.210937 15.628906-34.839843 34.839844-34.839843s34.839844 15.628906 34.839844 34.839843v22.21875c0 19.210938-15.628906 34.839844-34.839844 34.839844s-34.839844-15.628906-34.839844-34.839844zm4.78125 62.128907c8.371094 6.320312 18.785156 10.078125 30.058594 10.078125 11.277344 0 21.691406-3.757813 30.0625-10.078125 28.875.417969 52.242188 24.023437 52.242188 52.996093v29.792969h-164.609376v-29.792969c0-28.972656 23.367188-52.582031 52.246094-52.996093zm0 0"/><path d="m41.910156 228.347656c-4.183594 0-7.574218 3.394532-7.574218 7.574219v65.011719c0 4.183594 3.390624 7.574218 7.574218 7.574218h428.179688c4.183594 0 7.574218-3.390624 7.574218-7.574218v-258.523438c0-4.183594-3.390624-7.574218-7.574218-7.574218h-428.179688c-4.183594 0-7.574218 3.390624-7.574218 7.574218v158.230469c0 4.183594 3.390624 7.574219 7.574218 7.574219s7.574219-3.390625 7.574219-7.574219v-150.65625h413.03125v243.375h-413.03125v-57.4375c0-4.179687-3.390625-7.574219-7.574219-7.574219zm0 0"/><path d="m322.398438 186.316406c1.15625 0 2.320312-.265625 3.386718-.800781l72.710938-36.355469c2.566406-1.285156 4.1875-3.90625 4.1875-6.773437 0-2.871094-1.621094-5.492188-4.1875-6.773438l-72.710938-36.355469c-2.347656-1.175781-5.136718-1.050781-7.371094.328126-2.230468 1.382812-3.589843 3.820312-3.589843 6.445312v72.710938c0 2.625 1.359375 5.0625 3.589843 6.441406 1.21875.75 2.601563 1.132812 3.984376 1.132812zm7.574218-68.03125 48.199219 24.101563-48.199219 24.101562zm0 0"/><path d="m304.976562 213.074219v4.546875h-24.742187c-4.179687 0-7.574219 3.390625-7.574219 7.574218 0 4.179688 3.394532 7.570313 7.574219 7.570313h24.742187v4.546875c0 4.183594 3.390626 7.574219 7.574219 7.574219 4.183594 0 7.574219-3.390625 7.574219-7.574219v-4.546875h115.628906c4.183594 0 7.574219-3.390625 7.574219-7.570313 0-4.183593-3.390625-7.574218-7.574219-7.574218h-115.628906v-4.546875c0-4.183594-3.390625-7.574219-7.574219-7.574219-4.183593 0-7.574219 3.390625-7.574219 7.574219zm0 0"/></svg>